<?xml version="1.0" standalone="no"?><!DOCTYPE svg PUBLIC "-//W3C//DTD SVG 1.1//EN" "http://www.w3.org/Graphics/SVG/1.1/DTD/svg11.dtd"><svg t="1632015269116" class="icon" viewBox="0 0 1024 1024" version="1.1" xmlns="http://www.w3.org/2000/svg" p-id="1761" xmlns:xlink="http://www.w3.org/1999/xlink" width="200" height="200"><defs><style type="text/css"></style></defs><path d="M761.61 151.77h-21.56c-0.32-46.72-38.36-84.64-85.16-84.64H369.3c-46.79 0-84.84 37.92-85.15 84.64h-21.56c-62.35 0-113.06 50.72-113.06 113.06v579.24c0 62.34 50.72 113.06 113.06 113.06h499.03c62.35 0 113.06-50.72 113.06-113.06V264.83c-0.01-62.34-50.72-113.06-113.07-113.06z m-420.72 0.57c0-15.66 12.74-28.4 28.4-28.4H654.9c15.66 0 28.4 12.74 28.4 28.4v55.68c0 15.66-12.74 28.4-28.4 28.4H369.3c-15.66 0-28.4-12.74-28.4-28.4v-55.68z m476.98 691.72c0 31.01-25.23 56.25-56.25 56.25H262.59c-31.02 0-56.25-25.24-56.25-56.25V264.83c0-31.01 25.23-56.25 56.25-56.25h21.55c0.31 46.73 38.36 84.66 85.16 84.66h285.6c46.8 0 84.85-37.93 85.16-84.66h21.55c31.02 0 56.25 25.24 56.25 56.25v579.23z" fill="#666666" p-id="1762"></path><path d="M718.44 390H305.76c-15.69 0-28.4 12.72-28.4 28.4v5.68c0 15.69 12.72 28.4 28.4 28.4h412.69c15.69 0 28.4-12.72 28.4-28.4v-5.68c0-15.68-12.72-28.4-28.41-28.4zM718.44 553.14H305.76c-15.69 0-28.4 12.72-28.4 28.4v5.68c0 15.69 12.72 28.4 28.4 28.4h412.69c15.69 0 28.4-12.72 28.4-28.4v-5.68c0-15.68-12.72-28.4-28.41-28.4zM718.44 716.27H305.76c-15.69 0-28.4 12.72-28.4 28.4v5.68c0 15.69 12.72 28.4 28.4 28.4h412.69c15.69 0 28.4-12.72 28.4-28.4v-5.68c0-15.68-12.72-28.4-28.41-28.4z" fill="#666666" p-id="1763"></path></svg>