<?xml version="1.0" standalone="no"?><!DOCTYPE svg PUBLIC "-//W3C//DTD SVG 1.1//EN" "http://www.w3.org/Graphics/SVG/1.1/DTD/svg11.dtd"><svg class="icon" width="81px" height="81.00px" viewBox="0 0 1024 1024" version="1.1" xmlns="http://www.w3.org/2000/svg"><path fill="#646566" d="M612.1 456l-0.9-0.6-14.8 20.2 15.7-19.6z m-95.5 169.2l0.6-2.2-0.8 2.2c0.1-0.1 0.1-0.1 0.2 0z m103.9 48.7c0-17.9-6.5-51.6-50-77.4-15.9-9.4-31.7-14.8-40-17.3h-0.1c-0.2 0-0.3-0.1-0.4-0.1-1.3-0.4-2.7-0.7-4.1-1-2.6-0.9-12.4-4.4-39.7-16.8-26.7-12.2-33.1-29.5-33.7-41.8-0.4-8.4 3.5-17.5 10.7-25.1 6.5-6.8 21.3-18.3 47.9-18.4 46.1-0.1 70.7 17.5 71.7 18.2 10.3 7.6 24.9 5.8 33-4.3 8.3-10.3 6.6-25.5-3.7-33.7l-15.8 19.7 0.1-0.1 14.8-20.2c-5.2-3.8-33.7-23.1-82.8-26.9v-55.4c0-13.3-10.7-24-24-24h-0.9c-13.3 0-24 10.7-24 24V432c-21 5.4-38.4 15.9-51.2 29.4-16.2 17.1-24.9 38.8-23.9 60.5 1 20.9 10.9 60 61.7 83.2 30.1 13.7 42 18.1 46.9 19.5 1.8 0.5 2.6 0.6 3 0.7l3.2-21.8v-0.1l-3.2 21.9c0.1 0 0.2 0 0.3 0.1l0.8-2.2 0.5-1.4-1 3.6c2 0.6 16 4.6 29.4 12.6 13.5 8 26.4 19.9 26.4 36.1 0 12.3-7.2 21.7-17.4 28.1-10.2 6.4-23.6 9.9-35.9 10.3-24.6 0.9-60.7-5.7-80.2-29.6-8.4-10.3-23.5-11.8-33.8-3.4-10.3 8.4-11.8 23.5-3.4 33.8 22 27 52.5 38.8 77.7 43.8v50.8c0 13.3 10.7 24 24 24h0.9c13.3 0 24-10.7 24-24V760c18.9-1.8 37.2-7.8 52.1-17.1 25.6-16.1 40.1-41.2 40.1-69z m247.4-163.2c-34-45-67.4-74.3-68.2-75l-0.1-0.1c-50.5-44-79.4-80.6-95.5-105.7-8.1-12.5-13-22.2-15.8-28.4-1.4-3.1-2.3-5.4-2.8-6.7-0.1-0.3-0.2-0.5-0.3-0.7v-0.9c-0.3-4.6 3.5-18.5 11-33.6 10.9-23 28.3-50.2 42.9-71.1 14.6-21 26.1-35.6 26.1-35.7l2.8-4.5c2.9-6 4.7-12.7 4.7-19.6 0.1-10.7-4.7-20.5-10.2-26.5-17-17.3-34.6-17.6-36.5-18.7-5.5-0.9-11 0.1-15.9 2.8-24.9 14.3-49.3 18-68.5 18-10.9 0-20-1.2-26.2-2.4-1.8-0.3-3.3-0.7-4.5-1-37.7-32.4-78.2-36.5-96-36.5h-5.4c-17.8 0-58.3 4.1-96 36.5-5.7 1.4-16.8 3.4-30.7 3.4-19.2 0-43.6-3.8-68.5-18-4.8-2.8-10.4-3.8-15.9-2.8-1.3 0.3-9.6 1.5-19.9 6.4-5.2 2.6-11.1 6.1-16.6 12.2-5.5 6-10.4 15.8-10.3 26.5 0 6.9 1.8 13.6 4.7 19.7l2.8 4.5s5 6.4 12.8 17c11.7 15.9 29.2 41 43.5 65.7 14.5 24.1 24.5 50.2 23.7 57.6v0.9c-2.4 6.8-23.3 62.1-114.4 141.5l-0.1 0.1c-0.8 0.7-34.2 30-68.2 75-33.8 45.1-69.4 105.8-69.8 172.9 0 17.8 2.7 35.9 8.8 53.8 2.4 10.4 15.9 61.1 63.6 112.2 52 56 145.5 110.2 301.6 110 13.3 0 24-10.7 24-24s-10.7-24-24-24c-145.4-0.3-222.9-48.4-266.5-94.7-21.8-23.3-34.9-46.5-42.5-63.7-3.8-8.6-6.2-15.7-7.7-20.4-0.7-2.4-1.2-4.2-1.5-5.3-0.3-1.1-0.3-1.2-0.3-1.2l-0.9-3.3c-4.5-12.9-6.5-25.9-6.5-39.3-0.4-48.9 28.9-103.1 60-144 15.4-20.4 31-37.6 42.7-49.5 5.8-6 10.6-10.6 14-13.8 3.3-3.1 5-4.5 5-4.6l-0.1 0.1c107-93.3 127.7-160.5 128.9-165.1l0.2-0.8c1.1-4.4 1.5-8.6 1.5-12.7-0.3-18.7-7.1-35.9-15.6-54.3-18.8-39.1-49.2-81.8-64.7-102.7 27.9 12.5 54.7 16.1 76.1 16.1 29 0 48.4-6.5 50.2-7 3.2-1.1 6.2-2.9 8.7-5.2 23.8-22.2 49.7-26.8 63.3-27.6 1.8 0.2 3.7 0.2 5.6 0 0.2 0 0.7-0.1 1.7-0.1 0.4 0 0.7 0 1 0.1 0.4 0 0.6 0 0.7 0.1 1.9 0.2 3.8 0.2 5.6 0 13.6 0.8 39.5 5.4 63.3 27.5 2.5 2.3 5.5 4.1 8.7 5.2 1.7 0.6 21.1 7 50.1 7 21.3 0 48.1-3.6 76-16.1-8.4 11.3-21.1 29-33.9 48.9-11 17-22.1 35.7-30.7 53.9-8.5 18.4-15.3 35.5-15.6 54.3 0 4.1 0.4 8.3 1.5 12.7l0.2 0.8c1.2 4.5 21.9 71.8 129.2 165.1l-0.1-0.1s1.6 1.4 5 4.6c11.6 10.9 41.6 40.8 68.1 79.2 26.6 38.4 48.8 85.3 48.5 128.1 0 13.4-2 26.4-6.5 39.3l-1 4-0.2 0.8c-1.6 6.9-12.1 47.7-55.9 89.1-44.2 41.3-122.2 84.9-263.9 94.7-13.2 0.9-23.2 12.4-22.3 25.6 0.9 13.2 12.4 23.2 25.6 22.3C725.8 948.7 818 895 868.9 841.8c45.9-48 57.8-94 60-104.8 6-17.8 8.6-35.8 8.6-53.4-0.3-67.1-35.9-127.8-69.6-172.9z"  /></svg>