<?xml version="1.0" standalone="no"?><!DOCTYPE svg PUBLIC "-//W3C//DTD SVG 1.1//EN" "http://www.w3.org/Graphics/SVG/1.1/DTD/svg11.dtd"><svg class="icon" width="200px" height="200.00px" viewBox="0 0 1024 1024" version="1.1" xmlns="http://www.w3.org/2000/svg"><path fill="#333333" d="M983.780409 367.672889a510.520889 510.520889 0 0 0-109.710222-162.730667A510.520889 510.520889 0 0 0 512.000853 54.983111 510.492444 510.492444 0 0 0 149.93152 204.913778 510.492444 510.492444 0 0 0 0.000853 567.04a511.061333 511.061333 0 0 0 182.755556 392.106667l1.934222 1.592889c6.627556 5.489778 14.961778 8.561778 23.552 8.561777h607.630222c8.590222 0 16.924444-3.072 23.552-8.561777l1.962667-1.592889A511.345778 511.345778 0 0 0 1024.000853 566.983111c0-69.12-13.596444-136.106667-40.220444-199.310222zM797.014187 882.432H226.98752a424.106667 424.106667 0 0 1-140.117333-315.448889c0-113.578667 44.202667-220.330667 124.558222-300.572444A422.314667 422.314667 0 0 1 512.000853 141.852444c113.607111 0 220.330667 44.231111 300.572445 124.586667a422.314667 422.314667 0 0 1 124.586666 300.544 424.106667 424.106667 0 0 1-140.145777 315.448889z m-157.582223-473.713778a9.187556 9.187556 0 0 0-12.913777 0l-96.568889 96.568889a63.857778 63.857778 0 0 0-75.719111 37.319111 63.971556 63.971556 0 0 0 59.164444 88.547556 63.914667 63.914667 0 0 0 45.226667-18.773334 63.857778 63.857778 0 0 0 16.583111-61.838222l96.568889-96.568889a9.187556 9.187556 0 0 0 0-12.913777l-32.341334-32.341334z m-152.576-115.996444h50.289778a9.159111 9.159111 0 0 0 9.130667-9.159111V192.142222a9.159111 9.159111 0 0 0-9.130667-9.159111h-50.289778a9.159111 9.159111 0 0 0-9.130666 9.159111v91.420445c0 5.034667 4.096 9.159111 9.130666 9.159111z m297.159112 249.116444v50.289778c0 5.034667 4.096 9.159111 9.102222 9.159111h91.448889a9.159111 9.159111 0 0 0 9.159111-9.159111V541.866667a9.159111 9.159111 0 0 0-9.159111-9.102223h-91.420445a9.159111 9.159111 0 0 0-9.159111 9.102223z m14.506666-225.365333l-35.555555-35.555556a9.187556 9.187556 0 0 0-12.913778 0l-64.682667 64.711111a9.187556 9.187556 0 0 0 0 12.913778l35.555556 35.555556c3.527111 3.527111 9.386667 3.527111 12.913778 0l64.682666-64.711111a9.187556 9.187556 0 0 0 0-12.913778zM274.404409 280.917333a9.187556 9.187556 0 0 0-12.913778 0l-35.555555 35.555556a9.187556 9.187556 0 0 0 0 12.913778l64.682666 64.682666c3.555556 3.555556 9.386667 3.555556 12.913778 0l35.555556-35.555555a9.187556 9.187556 0 0 0 0-12.885334L274.404409 280.945778z m-48.128 251.790223H134.855964a9.159111 9.159111 0 0 0-9.130666 9.130666v50.289778c0 5.034667 4.096 9.159111 9.130666 9.159111h91.420445a9.159111 9.159111 0 0 0 9.159111-9.159111V541.866667a9.159111 9.159111 0 0 0-9.159111-9.102223z" /></svg>