<?xml version="1.0" standalone="no"?><!DOCTYPE svg PUBLIC "-//W3C//DTD SVG 1.1//EN" "http://www.w3.org/Graphics/SVG/1.1/DTD/svg11.dtd"><svg class="icon" width="200px" height="200.00px" viewBox="0 0 1024 1024" version="1.1" xmlns="http://www.w3.org/2000/svg"><path fill="#333333" d="M524.461822 379.39282c22.960862 0 41.565331-17.403369 41.565331-38.873356 0-21.467941-18.605492-38.858006-41.565331-38.858006-22.945512 0-40.393597 17.389042-40.393597 38.858006C484.068225 361.989451 501.51631 379.39282 524.461822 379.39282zM192.214455 938.541653l88.888018 0L281.102474 79.319533l-88.888018 0L192.214455 938.541653zM503.324566 212.6901l29.614671 0L532.939238 103.854323l59.245716 41.172725L592.184954 115.920126l-74.044354-51.458999-74.045377 51.458999 0 29.106922 59.230366-41.172725L503.32559 212.6901zM325.547506 775.585257l385.184142 0L710.731648 242.274906 325.547506 242.274906 325.547506 775.585257zM355.177528 271.90269l325.925122 0 0 474.05376L355.177528 745.95645 355.177528 271.90269zM755.175657 79.319533l0 859.222119 88.889042 0L844.064699 79.319533 755.175657 79.319533zM578.411712 392.268058 453.093523 392.268058c0 0-18.2289-2.155083-23.928949 12.96222l0 117.254517c0 0 0.49223 12.006452 13.165374 12.006452 0 0 14.105831 0.072655 14.105831-12.672624l0-70.917166c0 0 7.826566-16.131399 13.671931 0.810459l0.071634 251.465219c0 0-0.491207 12.890588 13.179701 12.890588l14.163138 0.202615c0 0 13.383347-0.146333 13.383347-13.093203L510.905529 586.459852c0 0 0.506557-6.611581 7.623944-6.611581 0 0 6.264937 2.357697 6.264937 6.885827l0 117.529787c0 0 0 11.805884 13.670908 11.805884l13.744589 0c0 0 13.671931-0.809435 13.671931-11.805884L565.881837 450.700889c0 0 4.919234-14.973016 13.671931-0.202615l0.448226 71.843258c0 0-3.182613 12.428054 14.092527 12.428054 12.991404 0 12.587182-11.877515 12.587182-11.877515l0.144292-117.659747C606.824972 405.230278 600.069852 392.268058 578.411712 392.268058zM532.939238 805.170063l-29.614671 0 0 108.834754-59.230366-41.172725 0 29.107945 74.045377 51.457975 74.044354-51.457975 0-29.107945-59.245716 41.172725L532.938214 805.170063z" /></svg>