<?xml version="1.0" standalone="no"?><!DOCTYPE svg PUBLIC "-//W3C//DTD SVG 1.1//EN" "http://www.w3.org/Graphics/SVG/1.1/DTD/svg11.dtd"><svg class="icon" width="200px" height="200.00px" viewBox="0 0 1024 1024" version="1.1" xmlns="http://www.w3.org/2000/svg"><path fill="#333333" d="M478.435556 113.777778c98.133333 0 181.001481 84.764444 181.001481 184.983703C659.437037 404.29037 581.594074 483.555556 478.435556 483.555556a183.087407 183.087407 0 0 1-184.983704-184.794075A187.543704 187.543704 0 0 1 478.435556 113.777778m0-56.888889a243.674074 243.674074 0 0 0-241.872593 241.872592A239.691852 239.691852 0 0 0 478.435556 540.444444c133.30963 0 237.89037-104.296296 237.89037-241.872592C716.325926 165.546667 607.668148 56.888889 478.435556 56.888889zM406.755556 910.222222c-84.385185 0-242.441481 0-242.441482-35.460741v-18.394074a252.776296 252.776296 0 0 1 112.45037-209.256296 232.580741 232.580741 0 0 1 127.905186-35.271111h139.377777c48.64 0 94.814815 13.274074 126.577778 36.314074l1.422222 1.042963 1.517037 0.948148a58.69037 58.69037 0 0 1 11.093334 8.533334 20.195556 20.195556 0 0 0 16.308148 6.162962 28.444444 28.444444 0 0 0 19.626667-49.303703c-12.705185-11.472593-2.275556-4.171852-16.782223-13.368889-45.131852-32.805926-104.296296-47.407407-159.952592-47.407408H404.66963a290.607407 290.607407 0 0 0-159.952593 45.131852 310.139259 310.139259 0 0 0-137.386667 256v18.488889c0 90.168889 131.223704 92.34963 299.330371 92.34963h147.626666a28.444444 28.444444 0 0 0 27.780741-28.444445 28.444444 28.444444 0 0 0-28.444444-28.444444C528.687407 910.222222 406.755556 910.222222 406.755556 910.222222z"  /><path fill="#333333" d="M632.13037 718.411852m9.481482 0l265.481481 0q9.481481 0 9.481482 9.481481l0 37.925926q0 9.481481-9.481482 9.481482l-265.481481 0q-9.481481 0-9.481482-9.481482l0-37.925926q0-9.481481 9.481482-9.481481Z"  /><path fill="#333333" d="M632.13037 814.26963m9.481482 0l265.481481 0q9.481481 0 9.481482 9.481481l0 37.925926q0 9.481481-9.481482 9.481482l-265.481481 0q-9.481481 0-9.481482-9.481482l0-37.925926q0-9.481481 9.481482-9.481481Z"  /><path fill="#333333" d="M632.13037 910.222222m9.481482 0l265.481481 0q9.481481 0 9.481482 9.481482l0 37.925926q0 9.481481-9.481482 9.481481l-265.481481 0q-9.481481 0-9.481482-9.481481l0-37.925926q0-9.481481 9.481482-9.481482Z"  /></svg>