<?xml version="1.0" standalone="no"?><!DOCTYPE svg PUBLIC "-//W3C//DTD SVG 1.1//EN" "http://www.w3.org/Graphics/SVG/1.1/DTD/svg11.dtd"><svg t="1631278685060" class="icon" viewBox="0 0 1024 1024" version="1.1" xmlns="http://www.w3.org/2000/svg" p-id="1650" xmlns:xlink="http://www.w3.org/1999/xlink" width="200" height="200"><defs><style type="text/css"></style></defs><path d="M161.792 997.888c-59.904 0-108.032-48.128-108.032-108.032L53.76 133.632C53.76 73.728 101.888 25.6 161.792 25.6l348.16 0 14.336 0 27.648 0 75.264 0 341.504 359.424 0 21.504 0 318.464 0 164.864c0 59.904-48.128 108.032-108.032 108.032L161.792 997.888zM645.12 124.416 645.12 322.56c0 29.696 24.064 54.272 54.272 54.272l83.968 0 0 0 103.936 0L645.12 124.416 645.12 124.416zM729.088 430.592l-29.696 0c-59.904 0-108.032-48.128-108.032-108.032L591.36 79.872 161.792 79.872c-29.696 0-54.272 24.064-54.272 54.272l0 756.224c0 29.696 24.064 54.272 54.272 54.272l699.392 0c29.696 0 54.272-24.064 54.272-54.272l0-110.592L915.456 430.592 729.088 430.592zM792.576 805.888 236.032 805.888c-15.36 0-27.648-12.288-27.648-27.136s12.288-27.136 27.648-27.136l556.544 0c15.36 0 27.648 12.288 27.648 27.136S807.936 805.888 792.576 805.888L792.576 805.888zM792.576 674.816 236.032 674.816c-15.36 0-27.648-12.288-27.648-27.136 0-14.848 12.288-27.136 27.648-27.136l556.544 0c15.36 0 27.648 12.288 27.648 27.136C820.224 662.528 807.936 674.816 792.576 674.816L792.576 674.816z" p-id="1651"></path><path d="M431.104 390.656c22.016-26.624 33.792-65.024 33.792-90.112 0-44.032-34.304-91.136-90.624-91.136-55.808 0-90.112 47.616-90.112 91.136 0 25.088 11.776 62.976 33.792 90.112-43.008 26.112-89.088 56.832-89.088 109.056 0 32.256 20.48 40.96 32.768 40.96l226.304 0c1.536 0 9.728-0.512 17.408-5.632 6.656-4.608 14.848-14.848 14.848-34.816C520.192 447.488 474.624 416.768 431.104 390.656zM361.984 384.512C336.896 370.688 317.44 330.24 317.44 304.64c0-29.696 21.504-61.952 56.32-61.952l1.024 0c34.816 0 56.32 32.256 56.32 61.952 0 25.6-19.456 66.048-44.544 79.872l-10.24 5.632 9.216 7.168c6.144 4.608 12.288 8.704 18.432 12.8l-11.776 6.656c0 0-6.144 3.072-17.92 3.072L373.76 419.84c-11.776 0-17.92-3.072-17.92-3.072l-11.264-6.656c6.144-4.096 12.288-8.192 18.432-12.8l9.216-7.168L361.984 384.512zM479.744 507.392 479.744 507.392l-71.68 0-15.36-65.024 19.968-27.136c4.096 2.56 8.192 5.12 11.776 7.68 34.304 21.504 64 40.448 64 67.072C488.448 501.248 484.864 507.392 479.744 507.392zM324.608 423.424c4.096-2.56 8.192-5.12 11.776-7.68l19.968 27.136-15.36 65.024-70.656-0.512-0.512 0-0.512 0c-0.512 0-2.56 0-4.608-1.536-2.56-2.56-4.608-8.192-4.608-15.36C260.608 463.36 290.304 444.928 324.608 423.424z" p-id="1652"></path></svg>