<?xml version="1.0" standalone="no"?><!DOCTYPE svg PUBLIC "-//W3C//DTD SVG 1.1//EN" "http://www.w3.org/Graphics/SVG/1.1/DTD/svg11.dtd"><svg t="1631004595164" class="icon" viewBox="0 0 1026 1024" version="1.1" xmlns="http://www.w3.org/2000/svg" p-id="3836" xmlns:xlink="http://www.w3.org/1999/xlink" width="200.390625" height="200"><defs><style type="text/css"></style></defs><path d="M254.22848 544.64a29.44 29.44 0 0 1-21.76-9.6 30.72 30.72 0 0 1 0-43.52l84.48-84.48V232.32a30.08 30.08 0 0 1 30.72-30.72 30.72 30.72 0 0 1 31.36 30.72v187.52a30.72 30.72 0 0 1-8.96 21.76L276.62848 535.04a31.36 31.36 0 0 1-22.4 9.6zM995.34848 947.2H386.70848a30.72 30.72 0 0 1-31.36-30.72v-76.16a183.68 183.68 0 0 1 183.68-183.68h305.28A183.68 183.68 0 0 1 1026.70848 840.32v76.16a30.72 30.72 0 0 1-31.36 30.72z m-576-64H962.70848v-44.8a122.24 122.24 0 0 0-121.6-121.6H537.74848a121.6 121.6 0 0 0-120.96 121.6zM690.70848 566.4A183.68 183.68 0 1 1 874.38848 384a183.68 183.68 0 0 1-183.68 182.4z m0-305.28A121.6 121.6 0 1 0 811.66848 384a121.6 121.6 0 0 0-120.96-122.88z" p-id="3837"></path><path d="M528.78848 128a338.56 338.56 0 0 0-183.04-51.2 342.4 342.4 0 0 0-49.92 681.6 185.6 185.6 0 0 1 46.08-58.24h-24.96a280.96 280.96 0 1 1 163.84-526.72 243.84 243.84 0 0 1 39.68 27.52 192 192 0 0 1 53.76-36.48A339.84 339.84 0 0 0 528.78848 128z" p-id="3838"></path></svg>