<?xml version="1.0" standalone="no"?><!DOCTYPE svg PUBLIC "-//W3C//DTD SVG 1.1//EN" "http://www.w3.org/Graphics/SVG/1.1/DTD/svg11.dtd"><svg class="icon" width="200px" height="200.00px" viewBox="0 0 1024 1024" version="1.1" xmlns="http://www.w3.org/2000/svg"><path fill="#333333" d="M1003.601594 845.105976L868.156175 709.864542c-14.278884-14.278884-35.493227-18.358566-54.055777-10.811156s-30.59761 25.701992-30.597609 45.692431v20.398406c0 4.895618-3.875697 8.771315-8.771315 8.771315h-13.666932V210.103586c0-5.50757-2.243825-10.607171-5.915538-14.482869l-189.705179-189.705179C561.568127 2.039841 556.468526 0 550.960956 0h-516.079681c-11.219124 0-20.398406 9.179283-20.398406 20.398406v983.203188c0 11.219124 9.179283 20.398406 20.398406 20.398406h705.78486c11.219124 0 20.398406-9.179283 20.398407-20.398406v-58.339443h13.666932c4.895618 0 8.771315 3.875697 8.771315 8.771315v20.398407c0 20.194422 12.03506 38.14502 30.597609 45.69243 6.119522 2.651793 12.647012 3.875697 18.970518 3.875697 12.850996 0 25.498008-5.099602 34.881275-14.482869l135.445419-135.445418c3.875697-3.875697 5.915538-8.975299 5.915537-14.482868s-2.039841-10.607171-5.711553-14.482869zM571.359363 69.558566L691.505976 189.705179h-120.146613V69.558566z m148.908366 913.644621h-664.988048V40.796813h475.282869v169.306773c0 11.219124 9.179283 20.398406 20.398406 20.398406h169.306773v543.413546h-42.836653c-11.219124 0-20.398406 9.179283-20.398407 20.398406v130.549801c0 11.219124 9.179283 20.398406 20.398407 20.398406h42.836653V983.203187z m-22.438247-78.737848v-89.752988h76.901992c27.333865 0 49.568127-22.234263 49.568128-49.568128v-20.398406c0-5.099602 3.467729-7.343426 5.303585-8.159363 2.039841-0.815936 5.915538-1.631873 9.587251 1.835857l120.96255 120.96255-120.96255 120.962549c-3.671713 3.671713-7.54741 2.651793-9.587251 1.835857s-5.303586-3.059761-5.303585-8.159363v-20.398406c0-27.333865-22.234263-49.568127-49.568128-49.568127h-76.901992zM158.291633 354.932271h337.593626c11.219124 0 20.398406-9.179283 20.398406-20.398406s-9.179283-20.398406-20.398406-20.398407H158.291633c-11.219124 0-20.398406 9.179283-20.398406 20.398407s9.179283 20.398406 20.398406 20.398406zM617.255777 448.76494h-458.964144c-11.219124 0-20.398406 9.179283-20.398406 20.398407s9.179283 20.398406 20.398406 20.398406h458.964144c11.219124 0 20.398406-9.179283 20.398406-20.398406s-9.179283-20.398406-20.398406-20.398407zM617.255777 583.394422h-458.964144c-11.219124 0-20.398406 9.179283-20.398406 20.398407s9.179283 20.398406 20.398406 20.398406h458.964144c11.219124 0 20.398406-9.179283 20.398406-20.398406s-9.179283-20.398406-20.398406-20.398407zM617.255777 718.023904h-458.964144c-11.219124 0-20.398406 9.179283-20.398406 20.398407s9.179283 20.398406 20.398406 20.398406h458.964144c11.219124 0 20.398406-9.179283 20.398406-20.398406s-9.179283-20.398406-20.398406-20.398407zM617.255777 314.135458h-44.876494c-11.219124 0-20.398406 9.179283-20.398407 20.398407s9.179283 20.398406 20.398407 20.398406h44.876494c11.219124 0 20.398406-9.179283 20.398406-20.398406s-9.179283-20.398406-20.398406-20.398407z" /></svg>