<?xml version="1.0" standalone="no"?><!DOCTYPE svg PUBLIC "-//W3C//DTD SVG 1.1//EN" "http://www.w3.org/Graphics/SVG/1.1/DTD/svg11.dtd"><svg t="1631084244132" class="icon" viewBox="0 0 1185 1024" version="1.1" xmlns="http://www.w3.org/2000/svg" p-id="2909" xmlns:xlink="http://www.w3.org/1999/xlink" width="231.4453125" height="200"><defs><style type="text/css"></style></defs><path d="M86.231579 80.842105a5.389474 5.389474 0 0 0-5.389474 5.389474v689.852632a5.389474 5.389474 0 0 0 5.389474 5.389473h1013.221053a5.389474 5.389474 0 0 0 5.389473-5.389473V86.231579a5.389474 5.389474 0 0 0-5.389473-5.389474H86.231579z m0-53.894737h1013.221053a59.284211 59.284211 0 0 1 59.28421 59.284211v689.852632a59.284211 59.284211 0 0 1-59.28421 59.28421H86.231579a59.284211 59.284211 0 0 1-59.284211-59.28421V86.231579A59.284211 59.284211 0 0 1 86.231579 26.947368z" fill="#1E2D3B" p-id="2910"></path><path d="M458.105263 447.326316a134.736842 134.736842 0 0 0 266.778948 26.947368H565.894737V315.284211a134.736842 134.736842 0 0 0-107.789474 132.042105z m161.684211-26.947369h161.68421v26.947369A188.631579 188.631579 0 1 1 592.842105 258.694737h26.947369v161.68421z" fill="#1E2D3B" p-id="2911"></path><path d="M700.631579 339.536842h49.313684A81.057684 81.057684 0 0 0 700.631579 290.223158V339.536842z m-26.947368-107.789474A134.736842 134.736842 0 0 1 808.421053 366.484211v26.947368h-161.684211v-161.684211h26.947369zM592.842105 808.421053a26.947368 26.947368 0 0 1 26.947369 26.947368v161.684211a26.947368 26.947368 0 1 1-53.894737 0v-161.684211a26.947368 26.947368 0 0 1 26.947368-26.947368z" fill="#1E2D3B" p-id="2912"></path><path d="M431.157895 970.105263h323.368421a26.947368 26.947368 0 1 1 0 53.894737H431.157895a26.947368 26.947368 0 1 1 0-53.894737z" fill="#1E2D3B" p-id="2913"></path></svg>