<?xml version="1.0" standalone="no"?><!DOCTYPE svg PUBLIC "-//W3C//DTD SVG 1.1//EN" "http://www.w3.org/Graphics/SVG/1.1/DTD/svg11.dtd"><svg class="icon" width="200px" height="200.00px" viewBox="0 0 1024 1024" version="1.1" xmlns="http://www.w3.org/2000/svg"><path fill="#333333" d="M711.39 305.42H199.1a29.89 29.89 0 0 1 0-59.77h512.29a29.89 29.89 0 0 1 0 59.77zM583.32 485.29H199.1a29.88 29.88 0 1 1 0-59.76h384.22a29.88 29.88 0 0 1 0 59.76zM455.25 665.16H199.1a29.88 29.88 0 0 1 0-59.76h256.15a29.88 29.88 0 0 1 0 59.76z"  /><path fill="#333333" d="M299.89 1019.21H149.63C67.13 1019.21 0 952.09 0 869.58V151.1C0 68.59 67.13 1.46 149.63 1.46h611.23c82.51 0 149.63 67.13 149.63 149.64v138.1a29.89 29.89 0 0 1-59.77 0V151.1a90 90 0 0 0-89.86-89.87H149.63a90 90 0 0 0-89.86 89.87v718.48a90 90 0 0 0 89.86 89.87h150.26a29.88 29.88 0 0 1 0 59.76z"  /><path fill="#333333" d="M780.66 808.79c-89.45 0-162.22-72.78-162.22-162.23s72.77-162.22 162.22-162.22 162.23 72.77 162.23 162.22-72.78 162.23-162.23 162.23z m0-264.69a102.46 102.46 0 1 0 102.46 102.46A102.58 102.58 0 0 0 780.66 544.1z"  /><path fill="#333333" d="M994.12 1022.24a29.89 29.89 0 0 1-29.89-29.88c0-101.22-82.35-183.57-183.57-183.57s-183.57 82.35-183.57 183.57a29.89 29.89 0 0 1-59.77 0C537.32 858.18 646.49 749 780.66 749S1024 858.18 1024 992.36a29.88 29.88 0 0 1-29.88 29.88z"  /></svg>