<?xml version="1.0" standalone="no"?><!DOCTYPE svg PUBLIC "-//W3C//DTD SVG 1.1//EN" "http://www.w3.org/Graphics/SVG/1.1/DTD/svg11.dtd"><svg class="icon" width="80px" height="80.00px" viewBox="0 0 1024 1024" version="1.1" xmlns="http://www.w3.org/2000/svg"><path fill="#ffffff" d="M928 832c17.673 0 32 14.327 32 32 0 17.673-14.327 32-32 32H96c-17.673 0-32-14.327-32-32 0-17.673 14.327-32 32-32h832z m0-235c17.673 0 32 14.327 32 32 0 17.673-14.327 32-32 32H416c-17.673 0-32-14.327-32-32 0-17.673 14.327-32 32-32h512zM81.06 363c3.817 0 7.524 1.354 10.527 3.845l157.88 130.956c7.414 6.15 8.71 17.492 2.897 25.334a17.586 17.586 0 0 1-2.897 3.063L91.587 657.154c-7.414 6.15-18.137 4.778-23.951-3.064C65.28 650.913 64 646.992 64 642.955v-261.91C64 371.078 71.638 363 81.06 363zM928 363c17.673 0 32 14.327 32 32 0 17.673-14.327 32-32 32H416c-17.673 0-32-14.327-32-32 0-17.673 14.327-32 32-32h512z m0-235c17.673 0 32 14.327 32 32 0 17.673-14.327 32-32 32H96c-17.673 0-32-14.327-32-32 0-17.673 14.327-32 32-32h832z" /></svg>