<?xml version="1.0" standalone="no"?><!DOCTYPE svg PUBLIC "-//W3C//DTD SVG 1.1//EN" "http://www.w3.org/Graphics/SVG/1.1/DTD/svg11.dtd"><svg t="1606823337465" class="icon" viewBox="0 0 1024 1024" version="1.1" xmlns="http://www.w3.org/2000/svg" p-id="3125" xmlns:xlink="http://www.w3.org/1999/xlink" width="80" height="80"><defs><style type="text/css"></style></defs><path d="M509.8 758.9c45.5 0.1 82.2 36.8 82.1 82.4-0.1 45.4-37 82.3-82.5 82.2-45.3 0-82.2-37.09999999-82.1-82.6 0.1-45.4 36.9-82 82.5-82z m-82.4-577c0-45.5 36.8-82.5 82.2-82.49999999 45.4-0.1 82.4 36.8 82.4 82.3 0 45.6-36.6 82.4-82.2 82.4s-82.4-36.6-82.4-82.20000001zM592 511.6c0 45.4-37.3 82.6-82.4 82.4-45.5-0.3-82.2-37.09999999-82.2-82.6 0-45.4 37.09999999-82.5 82.4-82.3 45.4 0.1 82.2 37 82.2 82.5z" p-id="3126"></path></svg>