<?xml version="1.0" standalone="no"?><!DOCTYPE svg PUBLIC "-//W3C//DTD SVG 1.1//EN" "http://www.w3.org/Graphics/SVG/1.1/DTD/svg11.dtd"><svg class="icon" width="200px" height="200.00px" viewBox="0 0 1024 1024" version="1.1" xmlns="http://www.w3.org/2000/svg"><path fill="#333333" d="M300.522 890.435H166.957v22.26a66.783 66.783 0 0 0 133.565 0v-22.26z m556.521 0H723.478v22.26a66.783 66.783 0 0 0 133.565 0v-22.26zM890.435 601.043a44.522 44.522 0 0 1 44.522 44.522v178.087a44.522 44.522 0 0 1-44.522 44.522h-756.87a44.522 44.522 0 0 1-44.522-44.522V645.565a44.522 44.522 0 0 1 44.522-44.522h756.87m0-44.521h-756.87a89.043 89.043 0 0 0-89.043 89.043v178.087a89.043 89.043 0 0 0 89.043 89.044h756.87a89.043 89.043 0 0 0 89.043-89.044V645.565a89.043 89.043 0 0 0-89.043-89.043zM729.489 311.652a72.348 72.348 0 0 1 73.906 56.32l33.836 188.55H186.77l33.836-188.55a72.348 72.348 0 0 1 73.906-56.32H729.49m0-44.522H294.51a117.315 117.315 0 0 0-117.76 93.05l-43.186 240.863h756.87l-43.186-240.862a117.315 117.315 0 0 0-117.76-93.05zM205.913 712.348a44.522 44.522 0 1 1-44.522 44.522 44.522 44.522 0 0 1 44.522-44.522m0-44.522a89.043 89.043 0 1 0 89.044 89.044 89.043 89.043 0 0 0-89.044-89.044z m623.304 44.522a44.522 44.522 0 1 1-44.521 44.522 44.522 44.522 0 0 1 44.521-44.522m0-44.522a89.043 89.043 0 1 0 89.044 89.044 89.043 89.043 0 0 0-89.044-89.044zM968.348 422.957h-22.261a33.391 33.391 0 0 1 0-66.783h11.13V233.739c0-5.342-6.455-11.13-15.805-11.13H82.588c-9.35 0-15.805 5.788-15.805 11.13v122.435h11.13a33.391 33.391 0 0 1 0 66.783h-22.26A55.652 55.652 0 0 1 0 367.304V233.74a80.362 80.362 0 0 1 82.588-77.913h858.824A80.362 80.362 0 0 1 1024 233.74v133.565a55.652 55.652 0 0 1-55.652 55.653z m-523.13 178.086a22.26 22.26 0 0 1-11.354-3.116 22.26 22.26 0 0 1-7.791-30.497l66.783-111.305a22.26 22.26 0 1 1 38.288 22.261L464.362 589.69a22.26 22.26 0 0 1-19.145 11.353zM512 44.522a33.391 33.391 0 0 1 33.391 33.391v77.913H478.61V77.913A33.391 33.391 0 0 1 512 44.522z" /></svg>