<?xml version="1.0" standalone="no"?><!DOCTYPE svg PUBLIC "-//W3C//DTD SVG 1.1//EN" "http://www.w3.org/Graphics/SVG/1.1/DTD/svg11.dtd"><svg t="1606826694555" class="icon" viewBox="0 0 1024 1024" version="1.1" xmlns="http://www.w3.org/2000/svg" p-id="11492" xmlns:xlink="http://www.w3.org/1999/xlink" width="80" height="80"><defs><style type="text/css"></style></defs><path d="M945.444726 849.751447l0.243336 0.048668-86.725172-191.067917V401.914726c-0.292004-159.53149-112.567522-297.698025-270.68766-333.030503-9.052122-38.93386-39.809872-68.03692-76.4077-68.03692-36.646495 0-67.404245 29.10306-76.456367 68.03692-158.120138 35.332478-270.395656 173.499012-270.638992 333.030503v256.817472L77.998331 849.751447a44.335933 44.335933 0 0 0 3.309378 42.681244 45.893287 45.893287 0 0 0 38.106515 20.586278h465.989634c-13.578184 27.935044-42.145903 45.747285-73.536328 45.893287a82.150444 82.150444 0 0 1-73.584995-45.844619H369.418271c5.937414 23.311649 17.617572 44.773939 34.01846 62.488844 8.468114 9.10079 18.00691 17.179566 28.470385 23.944324 2.092695 1.362685 4.234057 2.628036 6.375419 3.893386a146.585982 146.585982 0 0 0 73.584995 19.661599c67.404245-0.438006 125.951036-45.698618 142.400592-110.036821h249.76071a45.795953 45.795953 0 0 0 38.106516-20.586278 44.335933 44.335933 0 0 0 3.309378-42.681244zM511.86753 46.643256a29.687068 29.687068 0 0 1 23.65232 14.648864 344.515991 344.515991 0 0 0-23.65232-0.876011c-7.981441 0-15.816881 0.340671-23.700987 0.876011a29.735735 29.735735 0 0 1 23.700987-14.648864z m114.076209 802.232179H149.831302l76.505035-168.486278a39.955874 39.955874 0 0 0 3.650049-16.790227V401.914726c2.19003-151.598716 127.751727-273.315695 281.832477-273.315696 154.08075 0 279.642447 121.716979 281.881144 273.315696v261.635537a39.615202 39.615202 0 0 0 3.65005 16.838894l76.505034 168.486278h-247.911352z" p-id="11493"></path></svg>