<?xml version="1.0" standalone="no"?><!DOCTYPE svg PUBLIC "-//W3C//DTD SVG 1.1//EN" "http://www.w3.org/Graphics/SVG/1.1/DTD/svg11.dtd"><svg class="icon" width="81px" height="81.00px" viewBox="0 0 1024 1024" version="1.1" xmlns="http://www.w3.org/2000/svg"><path fill="#646566" d="M144 164.37333333h176v65.92h384v-65.92h176V454.4h53.33333333V111.04H704V38.29333333H320v72.74666667H90.66666667v874.66666667h318.82666666v-53.33333334H144v-768z m229.33333333-72.74666666h277.33333334v85.33333333H373.33333333v-85.33333333z m-101.33333333 435.09333333h160v53.33333333H272v-53.33333333z m480-107.41333333H272v-53.33333334h480v53.33333334z m-65.38666667 75.73333333c-135.46666667 0-245.33333333 109.86666667-245.33333333 245.33333333s109.86666667 245.33333333 245.33333333 245.33333334 245.33333333-109.86666667 245.33333334-245.33333334-109.86666667-245.33333333-245.33333334-245.33333333zM822.4 876.16c-36.26666667 36.26666667-84.48 56.21333333-135.78666667 56.21333333s-99.52-19.94666667-135.78666666-56.21333333-56.21333333-84.48-56.21333334-135.78666667 19.94666667-99.52 56.21333334-135.78666666c26.56-26.56 59.41333333-44.26666667 95.25333333-51.94666667V784h168.53333333v-53.33333333h-115.2V548.8c46.50666667 2.98666667 89.70666667 22.61333333 122.98666667 55.78666667 36.26666667 36.26666667 56.21333333 84.48 56.21333333 135.78666666S858.66666667 839.89333333 822.4 876.16z" /></svg>