<?xml version="1.0" standalone="no"?><!DOCTYPE svg PUBLIC "-//W3C//DTD SVG 1.1//EN" "http://www.w3.org/Graphics/SVG/1.1/DTD/svg11.dtd"><svg class="icon" width="200px" height="200.00px" viewBox="0 0 1024 1024" version="1.1" xmlns="http://www.w3.org/2000/svg"><path fill="#333333" d="M971.287063 1.319207c28.109261 0 42.168505 14.059243 42.168505 42.168505v379.553441c0 28.118486-14.059243 42.17773-42.168505 42.17773H338.694919c-28.109261 0-42.168505-14.059243-42.168505-42.17773V254.348685H127.833946v506.06818h42.17773A42.168505 42.168505 0 0 1 212.18018 802.594595v168.692468a42.168505 42.168505 0 0 1-42.168504 42.168505H43.487712a42.168505 42.168505 0 0 1-42.168505-42.168505V802.594595a42.168505 42.168505 0 0 1 42.168505-42.168505l42.159279-0.009225 0.01845-527.14782c0-4.981622 1.752793-9.760288 4.917045-13.542631l1.254631-1.374558a21.088865 21.088865 0 0 1 13.053694-6.088649l1.85427-0.083027h189.781333V43.487712c0-28.109261 14.059243-42.168505 42.168505-42.168505h632.592144z m-295.207207 42.168505H549.546667A42.168505 42.168505 0 0 0 507.387387 85.665441v295.207208a42.168505 42.168505 0 0 0 84.346235 0v-84.346235h84.346234c69.862631 0 126.505514-56.642883 126.505513-126.514738 0-69.871856-56.642883-126.514739-126.505513-126.523964z m0 84.346234a42.168505 42.168505 0 0 1 0 84.346234h-84.346234v-84.346234zM881.959207 591.733622c15.968865 0 30.572396 9.040721 37.703496 23.321369l77.01218 153.839856a42.085477 42.085477 0 0 1 16.78991 33.699748v126.514738a42.168505 42.168505 0 0 1-42.17773 42.17773v21.07964a21.088865 21.088865 0 0 1-21.088865 21.088865h-42.168504a21.088865 21.088865 0 0 1-21.088865-21.088865v-21.07964h-295.207207v21.07964a21.088865 21.088865 0 0 1-21.088865 21.088865h-42.168505A21.088865 21.088865 0 0 1 507.387387 992.366703v-21.07964a42.168505 42.168505 0 0 1-42.168504-42.17773V802.594595a42.159279 42.159279 0 0 1 16.780685-33.699748l77.002955-153.839856a42.168505 42.168505 0 0 1 37.703495-23.321369h285.253189zM612.831712 850.408937a42.168505 42.168505 0 1 0-42.17773 73.045333 42.168505 42.168505 0 0 0 42.17773-73.045333z m295.207207 0a42.168505 42.168505 0 1 0-42.17773 73.045333 42.168505 42.168505 0 0 0 42.17773-73.045333zM873.905586 633.902126H604.75964c-7.97982 0-15.267748 4.511135-18.847135 11.642234l-42.168505 84.346235a21.088865 21.088865 0 0 0 18.847135 30.535495h353.49218a21.088865 21.088865 0 0 0 18.847135-30.535495l-42.168504-84.346235a21.088865 21.088865 0 0 0-18.85636-11.642234z" /></svg>