<?xml version="1.0" standalone="no"?><!DOCTYPE svg PUBLIC "-//W3C//DTD SVG 1.1//EN" "http://www.w3.org/Graphics/SVG/1.1/DTD/svg11.dtd"><svg class="icon" width="200px" height="200.00px" viewBox="0 0 1024 1024" version="1.1" xmlns="http://www.w3.org/2000/svg"><path fill="#333333" d="M921.4 734.5c-9.2-8.8-19.5-17.8-28.3-25.3 28.9-58.4 90.5-211.6 31.7-363.1C875.5 219.4 755.2 127 566.9 71.5l-2.9-0.7c-69.9-13.6-104-7.1-113.8 21.7-12.5 36.5 32.5 59.1 51.7 68.7 1.8 0.9 4.5 2.3 8.1 4.3l-12.8 21.7c-0.6 0.9-15.7 21-63 12-56.5-19.1-83.9 5.6-97.2 17.5-1.2 1.1-2.4 2.2-3.5 3.1-12.6 9.4-111.2 114.3-168.8 176l-1.6 1.9c-14.5 18.1-29.5 65.3 17.2 113.8 39.5 41 109 109.1 111.9 112l21.2 20.8c-8.8-6.1-17.6-12.8-26.6-20.1-26.6-31.2-50.6-46-75.4-46.7-27.6-1.1-45.2 17.3-53.4 26-0.8 0.9-1.6 1.9-1.1 1.4L93.2 671c-5.2 5-19.7 21.3-18.8 43.8 0.6 15.3 8.5 29.4 22 39.7 6.8 5.2 13.7 10.4 20 15.1-16.4 34.1-23.6 84.8 16.1 134.5l3.6 3.8c27.4 24.7 61.4 36 95.4 31.7 23.6-2.9 45.9-12.9 63.5-28 58.9 30.1 133.8 47.8 209.4 47.8 74.9 0 150.6-17.5 212.2-57.6 15.5 13.1 30 24.9 35.4 29.3 9.9 10.6 27.7 21.4 50.1 21.4h0.8c31.9-0.3 63.7-21.6 94.7-63.3 55.7-75.9 72.2-108.8 23.8-154.7z m-75.1 116.9c-25.4 34.2-40.6 37-43.3 37.2h-0.6c-1.8 0-2.8-0.5-2.7-0.3l-5.1-5.2c-0.3-0.2-31.3-25.3-54.9-45.9l-20-17.5-20.9 16.4c-106.5 83.9-289.4 71.9-393.4 8l-26.1-16-17.1 25.3c-8.1 11.9-23.1 20.8-38.4 22.7-15.2 1.9-29.6-2.9-42.9-14.1-29.3-39-3.1-72.7 2.3-78.9l24-26.4-28.9-21c-0.1-0.1-16.3-11.9-34.4-25.4l53.8-56.5c2.1-1.9 4.5-4.2 6.9-6.8 1.9-2 5.1-5.4 4.8-5.8 0.1 0 9.7 1.5 30.3 26.1l4 4c178 148.5 348.9 85.3 356.1 82.5l46.3-17.8L384 477.9l-70.7 76.7c-24.3-24.1-62.3-61.7-87.1-87.5-13.7-14.2-15.5-25-13.5-29.2 70.1-75 149.6-158.9 159-167 2.5-1.9 5.2-4.2 7.9-6.7 8.5-7.6 13.2-11.9 35.3-4l4.3 1.2c47.8 9.7 82.4 0 104.8-14.1l44.2 39.2-93.6 94.9 21.4 22.4c1.5 1.5 147.3 154.3 215.7 222.2l47.1 46.8 7.2-66c27.4-252.6-89.8-393.5-169.5-458.6 140.4 50 230.6 124 268.2 220.5 62 158.8-38.8 330.1-39.8 331.7l-14.4 23.9 21.7 17.5c0.2 0.2 25.7 20.8 45.8 39.8 2.4 2.3 5.5 5.2 7.4 7.2-1.7 6.7-10 22.7-39.1 62.6zM316 646.1l70.2-76.3L523 704.6c-48.7 4-125.2-2.6-207-58.5z m329.1-346.2c33.8 56.1 60.4 131.3 61.2 229.8-50.6-51.7-111-114.6-142.4-147.4l81.2-82.4z" /></svg>