<?xml version="1.0" standalone="no"?><!DOCTYPE svg PUBLIC "-//W3C//DTD SVG 1.1//EN" "http://www.w3.org/Graphics/SVG/1.1/DTD/svg11.dtd"><svg class="icon" width="200px" height="200.00px" viewBox="0 0 1024 1024" version="1.1" xmlns="http://www.w3.org/2000/svg"><path fill="#333333" d="M846.023004 957.010283 177.393711 957.010283c-61.561078 0-111.440092-49.880037-111.440092-111.440092L65.953619 176.940898c0-61.560054 49.880037-111.449301 111.440092-111.449301l668.629293 0c61.560054 0 111.458511 49.889247 111.458511 111.449301l0 668.629293C957.481516 907.130246 907.583059 957.010283 846.023004 957.010283L846.023004 957.010283zM901.725654 176.940898c0-30.760584-24.958438-55.70265-55.703673-55.70265L177.393711 121.238248c-30.797423 0-55.755862 24.942065-55.755862 55.70265l0 668.629293c0 30.797423 24.958438 55.754838 55.755862 55.754838l668.629293 0c30.745235 0 55.703673-24.958438 55.703673-55.754838L901.726677 176.940898 901.725654 176.940898zM628.219443 280.46367l-73.951269 136.173402c-19.697621 36.893258-31.742958 61.416791-36.165688 73.605392l-1.235131 0c-13.005198-29.567409-49.733705-99.505271-110.097514-209.778794l-69.470211 0 129.216967 222.022653L360.536868 502.486322l0 49.062416 124.246769 0 0 67.61905L360.536868 619.167788l0 49.699935 124.246769 0 0 98.471732 61.613266 0 0-98.471732 119.893624 0 0-49.699935L546.39588 619.167788l0-67.61905 119.893624 0 0-49.062416L563.410392 502.486322l130.523729-222.022653L628.219443 280.46367 628.219443 280.46367z" /></svg>