<?xml version="1.0" standalone="no"?><!DOCTYPE svg PUBLIC "-//W3C//DTD SVG 1.1//EN" "http://www.w3.org/Graphics/SVG/1.1/DTD/svg11.dtd"><svg class="icon" width="200px" height="200.00px" viewBox="0 0 1024 1024" version="1.1" xmlns="http://www.w3.org/2000/svg"><path fill="#333333" d="M513 491.22c-44.3 0-80.21 35.91-80.21 80.21 0 34.9 22.29 64.57 53.4 75.61v141.04c0 13.34 10.82 24.17 24.17 24.17 13.35 0 24.17-10.83 24.17-24.17V648.69c33.84-9.41 58.68-40.43 58.68-77.27 0-44.29-35.91-80.2-80.21-80.2z"  /><path fill="#333333" d="M410.06 409.99m-40.89 0a40.89 40.89 0 1 0 81.78 0 40.89 40.89 0 1 0-81.78 0Z"  /><path fill="#333333" d="M623.67 409.99m-40.89 0a40.89 40.89 0 1 0 81.78 0 40.89 40.89 0 1 0-81.78 0Z"  /><path fill="#333333" d="M768.39 285.4h-10.32c-47.6-86.45-139.6-145.15-245.06-145.15S315.53 198.96 267.93 285.4h-10.32c-103.54 0-187.77 84.24-187.77 187.77V608.4c0 58.43 47.54 105.97 105.97 105.97 26.31 0 50.41-9.64 68.96-25.58 25.29 69.22 90.23 119.5 167.19 123.23-1.34 3.01-2.1 6.34-2.1 9.84C409.86 878.74 456.12 925 513 925c56.87 0 103.15-46.27 103.15-103.14v-15.01c14.04 2.42 28.61 1.72 42.53-2.45 57.51-17.19 102.36-61.21 122.42-115.74 18.57 16 42.72 25.69 69.1 25.69 58.44 0 105.98-47.54 105.98-105.97V473.17c-0.02-103.53-84.26-187.77-187.79-187.77zM175.81 666.02c-31.77 0-57.63-25.86-57.63-57.63V473.17c0-68.64 49.85-125.86 115.25-137.33V608.4c0.01 31.77-25.85 57.62-57.62 57.62z m568.4-41.49c0 61.15-40.87 116.07-99.39 133.56-12.66 3.79-26.52 1.64-37.76-5.42-0.96-0.77-1.97-1.46-3.04-2.07a46.72 46.72 0 0 1-6.45-5.76l-12.42-13.33c-9.1-9.79-24.4-10.29-34.16-1.21-9.76 9.11-10.3 24.41-1.2 34.16l12.42 13.33c1.79 1.92 3.66 3.74 5.58 5.49v38.59c0 30.21-24.58 54.79-54.8 54.79-30.21 0-54.79-24.58-54.79-54.79 0-10.24-6.37-18.98-15.36-22.51l27.64-37.9c7.87-10.78 5.5-25.9-5.29-33.77-10.8-7.87-25.92-5.48-33.77 5.29l-22.2 30.43c-71.29-6.07-127.45-66.03-127.45-138.88V419.81c0-127.5 103.73-231.22 231.22-231.22s231.22 103.72 231.22 231.22v204.72z m163.61-16.13c0 31.77-25.86 57.63-57.64 57.63-31.77 0-57.63-25.86-57.63-57.63V335.84c65.41 11.47 115.26 68.69 115.26 137.33V608.4z"  /></svg>