<?xml version="1.0" standalone="no"?><!DOCTYPE svg PUBLIC "-//W3C//DTD SVG 1.1//EN" "http://www.w3.org/Graphics/SVG/1.1/DTD/svg11.dtd"><svg class="icon" width="200px" height="200.00px" viewBox="0 0 1024 1024" version="1.1" xmlns="http://www.w3.org/2000/svg"><path fill="#333333" d="M723.250068 505.065225h0.027645c15.370566 0 27.843538-12.459661 27.857872-27.830227 0.013311-15.398211-12.44635-27.884493-27.830227-27.884493l-68.22967-0.051195 75.520757-89.967779c9.888684-11.779801 8.351833-29.353768-3.427968-39.229142-11.76649-9.875374-29.353768-8.379477-39.255763 3.427968l-88.77393 105.757115-88.761642-105.757115c-9.875374-11.806422-27.462652-13.275697-39.255764-3.427968-11.779801 9.875374-13.316653 27.449342-3.427968 39.229142l75.439871 89.883821-71.943302-0.054266h-0.027645c-15.370566 0-27.843538 12.459661-27.857872 27.830227-0.013311 15.397188 12.44635 27.884493 27.830227 27.884493l98.299134 0.07372-0.038907 42.330491-98.205961-0.07372h-0.027645c-15.370566 0-27.843538 12.459661-27.857872 27.830227-0.013311 15.398211 12.44635 27.884493 27.830227 27.884493l98.209033 0.074743-0.069625 75.690723c-0.013311 15.398211 12.44635 27.857872 27.830227 27.884493h0.026621c15.370566 0 27.843538-12.459661 27.857872-27.830227l0.069625-75.703009 98.19265 0.07372h0.027645c15.370566 0 27.843538-12.459661 27.857872-27.830227 0.013311-15.398211-12.44635-27.884493-27.830227-27.884493l-98.196746-0.07372 0.038907-42.330491 98.102549 0.072696z"  /><path fill="#333333" d="M894.515366 127.331403H90.010783a27.87835 27.87835 0 0 0-24.361304 14.336442 27.868111 27.868111 0 0 0 0.720816 28.265378l64.570304 103.540404-64.570304 103.568048a27.905995 27.905995 0 0 0 0 29.489945l64.570304 103.540404-64.570304 103.567024a27.905995 27.905995 0 0 0 0 29.489946l64.570304 103.540403-64.570304 103.53938a27.868111 27.868111 0 0 0-0.720816 28.265378 27.87835 27.87835 0 0 0 24.361304 14.336442h804.504583c34.808006 0 63.114339-28.319644 63.114339-63.114339V190.445742c0-34.794695-28.30531-63.114339-63.114339-63.114339z m7.39962 702.364855a7.40781 7.40781 0 0 1-7.39962 7.399619H315.414018v-27.856848c0-15.398211-12.472971-27.857872-27.857872-27.857872-15.383877 0-27.857872 12.459661-27.857872 27.857872v27.856848H140.217l47.200089-75.682531a27.905995 27.905995 0 0 0 0-29.489945l-64.570304-103.540404 64.570304-103.567024a27.905995 27.905995 0 0 0 0-29.489946l-64.570304-103.540403 64.570304-103.567024a27.905995 27.905995 0 0 0 0-29.489946l-47.200089-75.682531h119.482298v27.857872c0 15.398211 12.472971 27.857872 27.857872 27.857872 15.383877 0 27.857872-12.459661 27.857872-27.857872v-27.857872h579.102372c4.080183 0 7.399619 3.319436 7.399619 7.399619v639.250516z"  /><path fill="#333333" d="M287.556146 542.063321c-15.383877 0-27.857872 12.459661-27.857872 27.857872v119.67274c0 15.398211 12.472971 27.856848 27.857872 27.856849 15.383877 0 27.857872-12.459661 27.857872-27.856849V569.921193c0-15.398211-12.472971-27.857872-27.857872-27.857872zM287.556146 302.718863c-15.383877 0-27.857872 12.459661-27.857872 27.857872v119.672741c0 15.397188 12.472971 27.856848 27.857872 27.856848 15.383877 0 27.857872-12.459661 27.857872-27.856848V330.575712c0-15.397188-12.472971-27.856848-27.857872-27.856849z"  /></svg>