<?xml version="1.0" standalone="no"?><!DOCTYPE svg PUBLIC "-//W3C//DTD SVG 1.1//EN" "http://www.w3.org/Graphics/SVG/1.1/DTD/svg11.dtd"><svg class="icon" width="81px" height="81.00px" viewBox="0 0 1024 1024" version="1.1" xmlns="http://www.w3.org/2000/svg"><path fill="#646566" d="M832 762.24 832 768c0 96.64-83.84 176-192 189.44L640 928c0-17.92-14.08-32-32-32l-128 0C462.08 896 448 910.08 448 928l0 64C448 1009.92 462.08 1024 480 1024l128 0c159.36 0 288-114.56 288-256l0-5.76M896 762.24c37.12-13.44 64-48.64 64-90.24l0-128c0-41.6-26.88-76.8-64-90.24L896 448c0-211.84-172.16-384-384-384C300.16 64 128 236.16 128 448l0 5.76C90.88 467.2 64 502.4 64 544l0 128C64 725.12 106.88 768 160 768S256 725.12 256 672l0-128c0-41.6-26.88-76.8-64-90.24L192 448c0-176.64 143.36-320 320-320 176.64 0 320 143.36 320 320l0 5.76c-37.12 13.44-64 48.64-64 90.24l0 128c0 41.6 26.88 76.8 64 90.24M192 672C192 689.92 177.92 704 160 704S128 689.92 128 672l0-128C128 526.08 142.08 512 160 512S192 526.08 192 544L192 672zM896 672c0 17.92-14.08 32-32 32S832 689.92 832 672l0-128C832 526.08 846.08 512 864 512S896 526.08 896 544L896 672z" /></svg>