<?xml version="1.0" standalone="no"?><!DOCTYPE svg PUBLIC "-//W3C//DTD SVG 1.1//EN" "http://www.w3.org/Graphics/SVG/1.1/DTD/svg11.dtd"><svg class="icon" width="200px" height="200.00px" viewBox="0 0 1024 1024" version="1.1" xmlns="http://www.w3.org/2000/svg"><path fill="#333333" d="M891.392 512c0-39.762 24.146-74.721 61.507-89.062l19.128-7.342-5.059-19.85a466.831 466.831 0 0 0-50.995-123.219l-10.455-17.612-18.714 8.32a95.933 95.933 0 0 1-39.219 8.325 94.326 94.326 0 0 1-67.24-27.904c-28.12-28.12-35.769-69.899-19.482-106.435l8.356-18.75-17.664-10.454a469.356 469.356 0 0 0-123.29-50.985l-19.814-5.049-7.363 19.077c-14.433 37.392-49.403 61.553-89.078 61.553-39.757 0-74.716-24.146-89.062-61.517l-7.342-19.118-19.85 5.054a466.586 466.586 0 0 0-123.218 51l-17.613 10.455 8.32 18.714c16.266 36.567 8.617 78.356-19.477 106.455-17.945 17.95-41.866 27.837-67.348 27.837-13.589 0-26.757-2.78-39.132-8.269l-18.668-8.279-10.46 17.547a464.138 464.138 0 0 0-51.113 123.253l-5.043 19.815 19.077 7.362c37.376 14.434 61.532 49.398 61.532 89.078 0 39.757-24.146 74.716-61.517 89.068l-19.123 7.347 5.054 19.85a466.995 466.995 0 0 0 50.995 123.213l10.455 17.618 18.719-8.33a95.877 95.877 0 0 1 39.214-8.326c25.41 0 49.28 9.902 67.235 27.9 28.125 28.123 35.769 69.903 19.487 106.439l-8.356 18.75 17.664 10.454a469.028 469.028 0 0 0 123.29 50.98l19.814 5.049 7.363-19.078c14.449-37.386 49.413-61.542 89.093-61.542 39.762 0 74.721 24.146 89.068 61.512l7.347 19.123 19.85-5.059a467.174 467.174 0 0 0 123.218-50.99l17.618-10.46-8.33-18.719c-16.267-36.567-8.628-78.351 19.476-106.455 17.946-17.95 41.861-27.837 67.338-27.837 13.589 0 26.763 2.785 39.138 8.269l18.672 8.284 10.455-17.552a464.256 464.256 0 0 0 51.113-123.248l5.049-19.85-19.119-7.348c-37.365-14.34-61.501-49.305-61.501-89.062z m-5.857 199.542a142.013 142.013 0 0 0-37.95-5.115c-37.796 0-73.282 14.679-99.932 41.334-36.66 36.67-49.879 88.975-36.162 137.871a421.565 421.565 0 0 1-76.39 31.61c-24.874-44.287-71.225-71.93-123.101-71.93-51.784 0-98.13 27.648-123.07 71.936a422.543 422.543 0 0 1-76.559-31.662c13.317-48.517-0.066-101.765-36.111-137.805-26.64-26.71-62.096-41.42-99.84-41.42-12.98 0-25.708 1.725-38.037 5.15a421.023 421.023 0 0 1-31.626-76.41c44.288-24.874 71.936-71.225 71.936-123.101 0-51.789-27.648-98.135-71.936-123.07a417.91 417.91 0 0 1 31.703-76.467c12.293 3.4 24.996 5.115 37.95 5.115 37.79 0 73.282-14.679 99.932-41.334 36.664-36.669 49.889-88.97 36.173-137.87a420.639 420.639 0 0 1 76.385-31.612c24.873 44.288 71.224 71.936 123.095 71.936 51.789 0 98.13-27.643 123.07-71.94a422.932 422.932 0 0 1 76.559 31.666c-13.323 48.512 0.066 101.76 36.106 137.805 26.644 26.711 62.106 41.42 99.845 41.42a141.773 141.773 0 0 0 38.042-5.15 421.345 421.345 0 0 1 31.62 76.411c-44.287 24.863-71.924 71.21-71.924 123.09 0 51.876 27.638 98.227 71.926 123.1a418.627 418.627 0 0 1-31.703 76.442zM512 370.181c-78.198 0-141.819 63.621-141.819 141.819 0 78.203 63.621 141.824 141.819 141.824 78.203 0 141.824-63.621 141.824-141.824 0-78.198-63.621-141.819-141.824-141.819z m0 237.563c-52.792 0-95.739-42.952-95.739-95.744s42.952-95.739 95.739-95.739c52.797 0 95.744 42.952 95.744 95.739 0 52.797-42.947 95.744-95.744 95.744z" /></svg>