<?xml version="1.0" standalone="no"?><!DOCTYPE svg PUBLIC "-//W3C//DTD SVG 1.1//EN" "http://www.w3.org/Graphics/SVG/1.1/DTD/svg11.dtd"><svg class="icon" width="81px" height="81.00px" viewBox="0 0 1024 1024" version="1.1" xmlns="http://www.w3.org/2000/svg"><path fill="#646566" d="M928 701c-8.8 0-16-7.2-16-16v-77c0-53-43-96-96-96H560c-8.8 0-16-7.2-16-16v-96c0-8.8 7.2-16 16-16h48c53 0 96-43 96-96V96c0-53-43-96-96-96H416c-53 0-96 43-96 96v192c0 53 43 96 96 96h48c8.8 0 16 7.2 16 16v96c0 8.8-7.2 16-16 16H208c-53 0-96 43-96 96v77c0 8.8-7.2 16-16 16-53 0-96 43-96 96v131c0 53 43 96 96 96h96c53 0 96-43 96-96V797c0-53-43-96-96-96-8.8 0-16-7.2-16-16v-77c0-17.7 14.3-32 32-32h256c8.8 0 16 7.2 16 16v94c0 8.3-6.7 15-15 15h-1c-53 0-96 43-96 96v131c0 53 43 96 96 96h96c53 0 96-43 96-96V797c0-53-43-96-96-96h-1c-8.3 0-15-6.7-15-15v-94c0-8.8 7.2-16 16-16h256c17.7 0 32 14.3 32 32v77c0 8.8-7.2 16-16 16-53 0-96 43-96 96v131c0 53 43 96 96 96h96c53 0 96-43 96-96V797c0-53-43-96-96-96z m-736 64c17.6 0 32 14.4 32 32v131c0 17.6-14.4 32-32 32H96c-17.6 0-32-14.4-32-32V797c0-17.6 14.4-32 32-32h96z m368 0c17.6 0 32 14.4 32 32v131c0 17.6-14.4 32-32 32h-96c-17.6 0-32-14.4-32-32V797c0-17.6 14.4-32 32-32h96zM416 320c-17.6 0-32-14.4-32-32V96c0-17.6 14.4-32 32-32h192c17.6 0 32 14.4 32 32v192c0 17.6-14.4 32-32 32H416z m544 608c0 17.6-14.4 32-32 32h-96c-17.6 0-32-14.4-32-32V797c0-17.6 14.4-32 32-32h96c17.6 0 32 14.4 32 32v131z" /></svg>