<?xml version="1.0" standalone="no"?><!DOCTYPE svg PUBLIC "-//W3C//DTD SVG 1.1//EN" "http://www.w3.org/Graphics/SVG/1.1/DTD/svg11.dtd"><svg t="1623580432888" class="icon" viewBox="0 0 1024 1024" version="1.1" xmlns="http://www.w3.org/2000/svg" p-id="8790" xmlns:xlink="http://www.w3.org/1999/xlink" width="200" height="200"><defs><style type="text/css"></style></defs><path d="M847.6672 206.2848l-195.7376-65.7408a41.10848 41.10848 0 0 0-24.2176-0.5632L376.1664 211.2l-189.3888-43.9808a40.8576 40.8576 0 0 0-34.7648 7.8336 40.77056 40.77056 0 0 0-15.4624 32.0512v576.8192c0 18.0224 11.52 33.6896 28.7232 39.0656l205.2096 64.256c3.9936 1.2288 8.0896 1.8944 12.2368 1.8944 3.8912 0 7.7824-0.5632 11.5712-1.6896l241.5616-71.168 188.5184 48.7936c12.3392 3.2256 25.2416 0.5632 35.328-7.2704a40.71936 40.71936 0 0 0 15.872-32.4096V245.1456c0-17.6128-11.2128-33.2288-27.904-38.8608zM406.1696 730.4192c0 14.1312-11.4688 25.6-25.6 25.6s-25.6-11.4688-25.6-25.6V348.2624c0-14.1312 11.4688-25.6 25.6-25.6s25.6 11.4688 25.6 25.6v382.1568z m250.9824-82.3808c0 14.1312-11.4688 25.6-25.6 25.6s-25.6-11.4688-25.6-25.6V379.4432c0-14.1312 11.4688-25.6 25.6-25.6s25.6 11.4688 25.6 25.6v268.5952z" fill="#333333" p-id="8791"></path></svg>