<?xml version="1.0" standalone="no"?><!DOCTYPE svg PUBLIC "-//W3C//DTD SVG 1.1//EN" "http://www.w3.org/Graphics/SVG/1.1/DTD/svg11.dtd"><svg class="icon" width="200px" height="200.00px" viewBox="0 0 1024 1024" version="1.1" xmlns="http://www.w3.org/2000/svg"><path fill="#333333" d="M907.401 628.598a215.126 215.126 0 1 0 63.248 152.74 215.126 215.126 0 0 0-63.248-152.74zM695.717 757.674a20.222 20.222 0 0 1 3.442-4.303L820.06 641.076a27.106 27.106 0 0 1 37.862 0l16.35 16.35a27.106 27.106 0 0 1 0 38.292l-120.9 112.295c-2.582 2.582 0 2.152-6.024 3.442l-70.992 30.118a9.896 9.896 0 0 1-11.186-11.186z m166.938 157.472H647.53a27.106 27.106 0 1 1 0-53.781h215.126a27.106 27.106 0 1 1 0 53.781zM512 510.28c138.11 0 277.082-195.765 188.02-395.832A196.625 196.625 0 0 0 527.92 0.43C368.295-6.024 296.012 90.353 296.012 243.953S401.855 510.279 512 510.279zM484.894 780.908a268.047 268.047 0 0 1 61.096-172.101 27.106 27.106 0 0 0-19.362-43.025H511.57C258.58 565.352 53.35 799.839 53.35 888.9S258.581 1024 512 1024h39.583a27.106 27.106 0 0 0 18.07-46.467 269.768 269.768 0 0 1-84.76-196.625z" /></svg>