<?xml version="1.0" standalone="no"?><!DOCTYPE svg PUBLIC "-//W3C//DTD SVG 1.1//EN" "http://www.w3.org/Graphics/SVG/1.1/DTD/svg11.dtd"><svg t="1628800643690" class="icon" viewBox="0 0 1025 1024" version="1.1" xmlns="http://www.w3.org/2000/svg" p-id="3079" xmlns:xlink="http://www.w3.org/1999/xlink" width="81.0791015625" height="81"><defs><style type="text/css"></style></defs><path d="M433.048 157.845c22.74-23.043 53.113-33.978 83.097-32.752 27.355 0.612 54.457 11.772 74.685 33.277l6.274 6.672 329.473 342.037c18.106 18.797 5.1 50-20.74 50.622l-0.788 0.01-65.135-0.001v296.917c0 60.348-48.43 109.384-108.542 110.358l-1.825 0.015H298.028c-60.954 0-110.368-49.416-110.368-110.373V557.71h-77.709c-26.27 0-39.645-31.365-21.825-50.318l0.55-0.571z m17.17 480.2H332.954c-22.858 0-41.388 18.531-41.388 41.39v117.271c0 22.86 18.53 41.39 41.388 41.39H450.22c22.858 0 41.388-18.53 41.388-41.39v-117.27c0-22.86-18.53-41.39-41.388-41.39z m243.73 0H576.682c-22.858 0-41.388 18.531-41.388 41.39v117.271c0 22.86 18.53 41.39 41.388 41.39h117.266c22.858 0 41.388-18.53 41.388-41.39v-117.27c0-22.86-18.53-41.39-41.388-41.39z m-243.73-246.039H332.954c-22.858 0-41.388 18.531-41.388 41.39v117.271c0 22.86 18.53 41.39 41.388 41.39H450.22c22.858 0 41.388-18.53 41.388-41.39v-117.27c0-22.86-18.53-41.39-41.388-41.39z" fill="#333333" p-id="3080"></path></svg>