<?xml version="1.0" standalone="no"?><!DOCTYPE svg PUBLIC "-//W3C//DTD SVG 1.1//EN" "http://www.w3.org/Graphics/SVG/1.1/DTD/svg11.dtd"><svg t="1634628651843" class="icon" viewBox="0 0 1024 1024" version="1.1" xmlns="http://www.w3.org/2000/svg" p-id="2428" xmlns:xlink="http://www.w3.org/1999/xlink" width="200" height="200"><defs><style type="text/css"></style></defs><path d="M212.6 813.7c0 13.8 11.2 25 25 25h527.6c13.8 0 25-11.2 25-25V520.5c0-77.1-30-149.7-84.6-204.2s-127.1-84.6-204.2-84.6-149.7 30-204.2 84.6c-54.5 54.5-84.6 127.1-84.6 204.2v293.2z m50-293.2c0-131.7 107.1-238.8 238.8-238.8 131.7 0 238.8 107.1 238.8 238.8v268.2H262.6V520.5z m637.2 391.8H124.2c-13.8 0-25 11.2-25 25s11.2 25 25 25h775.7c13.8 0 25-11.2 25-25-0.1-13.8-11.3-25-25.1-25zM537 102.3c0-13.8-11.2-25-25-25s-25 11.2-25 25v65.1h50v-65.1z m283.6 164l49.2-49.2c9.8-9.8 9.8-25.6 0-35.4-9.8-9.8-25.6-9.8-35.4 0l-49.2 49.2 35.4 35.4zM206 275.8l35.4-35.4-49.2-49.2c-9.8-9.8-25.6-9.8-35.4 0-9.8 9.8-9.8 25.6 0 35.4l49.2 49.2z" p-id="2429"></path><path d="M570.7 515.8H470.5l42.9-88.8c6-12.4 0.8-27.4-11.6-33.4s-27.4-0.8-33.4 11.6l-60.3 124.7c-3.7 7.7-3.2 16.9 1.3 24.2 4.6 7.3 12.6 11.7 21.2 11.7h95L467 659.6c-7.3 11.7-3.8 27.1 7.9 34.5 4.1 2.6 8.7 3.8 13.2 3.8 8.3 0 16.5-4.2 21.2-11.7l82.6-132c4.8-7.7 5.1-17.4 0.7-25.4s-12.8-13-21.9-13z" p-id="2430"></path></svg>