<?xml version="1.0" standalone="no"?><!DOCTYPE svg PUBLIC "-//W3C//DTD SVG 1.1//EN" "http://www.w3.org/Graphics/SVG/1.1/DTD/svg11.dtd"><svg t="1626254796367" class="icon" viewBox="0 0 1024 1024" version="1.1" xmlns="http://www.w3.org/2000/svg" p-id="1207" xmlns:xlink="http://www.w3.org/1999/xlink" width="200" height="200"><defs><style type="text/css"></style></defs><path d="M810.666667 320c0-164.266667-134.4-298.666667-298.666667-298.666667S213.333333 155.733333 213.333333 320c0 162.133333 221.866667 424.533333 283.733334 494.933333 8.533333 8.533333 23.466667 10.666667 32 0C588.8 744.533333 810.666667 486.4 810.666667 320z m-448 0c0-83.2 66.133333-149.333333 149.333333-149.333333s149.333333 66.133333 149.333333 149.333333-66.133333 149.333333-149.333333 149.333333-149.333333-66.133333-149.333333-149.333333z" fill="#666767" p-id="1208"></path><path d="M708.266667 725.333333c-10.666667 12.8-2.133333 32 12.8 34.133334 51.2 6.4 98.133333 17.066667 138.666666 27.733333 98.133333 27.733333 119.466667 59.733333 119.466667 64 0 6.4-21.333333 36.266667-119.466667 64-93.866667 27.733333-217.6 42.666667-349.866666 42.666667-132.266667 0-258.133333-14.933333-349.866667-42.666667C64 889.6 42.666667 859.733333 42.666667 853.333333c0-6.4 21.333333-36.266667 119.466666-64 40.533333-12.8 87.466667-21.333333 140.8-27.733333 17.066667-2.133333 23.466667-21.333333 14.933334-34.133333-4.266667-6.4-10.666667-8.533333-19.2-8.533334C121.6 742.4 0 793.6 0 853.333333c0 83.2 228.266667 149.333333 512 149.333334s512-66.133333 512-149.333334c0-59.733333-121.6-110.933333-296.533333-134.4-6.4-2.133333-14.933333 2.133333-19.2 6.4z" fill="#666767" p-id="1209"></path></svg>