<?xml version="1.0" standalone="no"?><!DOCTYPE svg PUBLIC "-//W3C//DTD SVG 1.1//EN" "http://www.w3.org/Graphics/SVG/1.1/DTD/svg11.dtd"><svg t="1631017817374" class="icon" viewBox="0 0 1024 1024" version="1.1" xmlns="http://www.w3.org/2000/svg" p-id="2312" xmlns:xlink="http://www.w3.org/1999/xlink" width="200" height="200"><defs><style type="text/css"></style></defs><path d="M840 912a24 24 0 0 1 0 48h-640a24 24 0 0 1 0-48h640z m64-272c30.88 0 56 25.12 56 56v96c0 30.88-25.12 56-56 56h-768C105.12 848 80 822.88 80 792v-96C80 665.12 105.12 640 136 640H416v-54.832c-66.352-73.264-112-208.832-112-289.168C304 176.896 400.896 80 520 80S736 176.896 736 296c0 80.336-45.648 215.904-112 289.168V640h280z m8 152v-96c0-4.4-3.6-8-8-8h-304a24 24 0 0 1-24-24v-88.352c0-6.304 2.464-12.352 6.896-16.832C643.04 497.664 688 369.632 688 296 688 203.36 612.64 128 520 128S352 203.36 352 296c0 73.632 44.96 201.664 105.104 262.816 4.432 4.48 6.896 10.528 6.896 16.832V664a24 24 0 0 1-24 24h-304c-4.4 0-8 3.6-8 8v96c0 4.4 3.6 8 8 8h768c4.4 0 8-3.6 8-8z" fill="#797979" p-id="2313"></path></svg>