<?xml version="1.0" standalone="no"?><!DOCTYPE svg PUBLIC "-//W3C//DTD SVG 1.1//EN" "http://www.w3.org/Graphics/SVG/1.1/DTD/svg11.dtd"><svg class="icon" width="81px" height="81.00px" viewBox="0 0 1024 1024" version="1.1" xmlns="http://www.w3.org/2000/svg"><path fill="#646566" d="M509.305263 320.673684v-2.694737s0-2.694737-2.694737-2.694736l-2.694737-2.694737-2.694736-2.694737h-2.694737c-2.694737 0-2.694737-2.694737-5.389474-2.694737h-2.694737-2.694737l-78.147368 10.778947 26.947368-153.6v-8.08421-2.694737s0-2.694737-2.694736-2.694737c0-2.694737-2.694737-2.694737-5.389474-5.389474-2.694737 0-5.389474-2.694737-8.084211-2.694736h-2.694736-2.694737c-2.694737 0-2.694737 0-5.389474 2.694736h-2.694737c-2.694737 0-2.694737 2.694737-5.389474 5.389474l-172.463157 264.084211v2.694737s0 2.694737-2.694737 2.694736v10.778948s0 2.694737 2.694737 2.694737c0 0 0 2.694737 2.694736 2.694736l2.694737 2.694737h13.473684l78.147369-10.778947-26.947369 156.294737v10.778947s0 2.694737 2.694737 2.694737c0 2.694737 2.694737 2.694737 5.389474 5.389474 2.694737 0 5.389474 2.694737 5.389474 2.694736h2.694737c2.694737 0 5.389474 0 8.08421-2.694736h2.694737c2.694737 0 2.694737-2.694737 5.389474-5.389474l172.463157-266.778947v-2.694737s0-2.694737 2.694737-2.694737v-5.389474h2.694737z m-142.821052 86.231579V404.210526v-2.694737s0-2.694737-2.694737-2.694736l-2.694737-2.694737-2.694737-2.694737h-2.694737c-2.694737 0-2.694737-2.694737-5.389474-2.694737h-2.694736-2.694737l-61.978948 8.084211L385.347368 242.526316l-16.168421 88.926316V339.536842s0 2.694737 2.694737 2.694737c0 0 0 2.694737 2.694737 2.694737l2.694737 2.694737s2.694737 0 2.694737 2.694736c0 0 2.694737 0 2.694737 2.694737H390.736842l61.978947-8.08421-99.705263 153.6 16.168421-88.926316c-2.694737 0-2.694737 0-2.694736-2.694737z"  /><path fill="#646566" d="M959.326316 339.536842l-2.694737-83.536842v-2.694737-2.694737l-105.094737-185.936842-2.694737-2.694737-2.694737-2.694736s-2.694737 0-2.694736-2.694737c0 0-2.694737 0-2.694737-2.694737h-2.694737-2.694737-2.694737-2.694737l-67.368421 26.947368s-2.694737 0-2.694737 2.694737c0 0-2.694737 0-2.694736 2.694737l-2.694737 2.694737-2.694737 2.694737v10.778947l59.28421 153.6v78.147368h-43.115789c-10.778947 0-18.863158 8.084211-18.863158 18.863158v70.063158l-32.336842 40.421053v2.694737l-2.694737 2.694737v153.6c0 10.778947 8.084211 18.863158 18.863158 18.863157h37.726316c10.778947 0 18.863158-8.084211 18.863158-18.863157s-8.084211-18.863158-18.863158-18.863158H754.526316v-123.957895l21.557895-26.947369 48.505263 32.336843v137.431579c0 10.778947 8.084211 18.863158 18.863158 18.863157h43.115789V916.210526c0 16.168421-13.473684 26.947368-26.947368 26.947369h-29.642106c-16.168421 0-26.947368-13.473684-26.947368-26.947369v-153.6c0-35.031579-29.642105-64.673684-64.673684-64.673684h-83.536842V180.547368c0-80.842105-64.673684-145.515789-145.51579-145.515789H237.136842c-80.842105 0-145.515789 64.673684-145.515789 145.515789v641.347369h-26.947369c-10.778947 0-18.863158 8.084211-18.863158 18.863158V970.105263c0 10.778947 8.084211 18.863158 18.863158 18.863158h617.094737c10.778947 0 18.863158-8.084211 18.863158-18.863158v-129.347368c0-10.778947-8.084211-18.863158-18.863158-18.863158h-26.947368v-78.147369h83.536842c16.168421 0 26.947368 13.473684 26.947368 26.947369v153.6c0 35.031579 29.642105 64.673684 64.673684 64.673684h29.642106c35.031579 0 64.673684-29.642105 64.673684-64.673684V644.042105c26.947368-8.084211 48.505263-29.642105 53.894737-59.28421v-229.052632c0-8.084211-8.084211-16.168421-18.863158-16.168421zM398.821053 859.621053h264.08421v91.621052H83.536842v-91.621052h315.284211z m0-37.726316h-269.473685V180.547368c0-59.284211 48.505263-107.789474 107.789474-107.789473h272.168421c59.284211 0 107.789474 48.505263 107.789474 107.789473v641.347369h-218.273684zM851.536842 253.305263v-2.694737l-53.894737-140.126315 29.642106-13.473685 94.315789 167.073685v78.147368h-67.368421V256c-2.694737 0-2.694737-2.694737-2.694737-2.694737z m53.894737 355.705263H862.315789v-129.347368-2.694737-2.694737s0-2.694737-2.694736-2.694737c0 0 0-2.694737-2.694737-2.694736l-2.694737-2.694737h-2.694737l-61.978947-40.421053V377.263158h150.905263v196.715789c0 18.863158-16.168421 35.031579-35.031579 35.031579z"  /></svg>