<?xml version="1.0" standalone="no"?><!DOCTYPE svg PUBLIC "-//W3C//DTD SVG 1.1//EN" "http://www.w3.org/Graphics/SVG/1.1/DTD/svg11.dtd"><svg class="icon" width="200px" height="195.42px" viewBox="0 0 1048 1024" version="1.1" xmlns="http://www.w3.org/2000/svg"><path fill="#333333" d="M998.048 967.013c0-74.213-208.731-134.361-466.21-134.361s-466.2 60.147-466.2 134.361zM83.213 922.474h880.431v35.15H83.213zM989.395 992.001H56.987a24.988 24.988 0 0 1-24.988-24.988c0-26.903 16.004-51.45 47.595-72.95 25.678-17.493 61.696-32.997 107.09-46.074 90.242-26.01 209.778-40.337 336.585-40.337s246.308 14.278 336.584 40.337c45.37 13.089 81.387 28.557 107.09 46.072 31.556 21.502 47.596 46.05 47.596 72.952a24.988 24.988 0 0 1-24.988 24.988z m-890.7-49.975h848.984c-18.122-14.898-51.368-31.497-101.76-46.013-85.874-24.75-200.483-38.373-322.734-38.373s-236.87 13.623-322.734 38.373c-50.379 14.517-83.638 31.116-101.746 46.013zM108.794 924.818a24.988 24.988 0 0 1-24.987-24.988V188.697a24.988 24.988 0 0 1 24.987-24.988H276.26V56.987a24.988 24.988 0 0 1 24.988-24.988h355.99a24.988 24.988 0 0 1 24.988 24.988V832.65a24.988 24.988 0 0 1-49.975 0V81.976H326.235v106.72a24.988 24.988 0 0 1-24.987 24.989H133.784v686.148a24.988 24.988 0 0 1-24.988 24.987z m854.886 22.644a24.988 24.988 0 0 1-24.988-24.988V255.32H801.427v587.103a24.988 24.988 0 0 1-49.975 0V230.33a24.988 24.988 0 0 1 24.987-24.988h187.24a24.988 24.988 0 0 1 24.989 24.988v692.145a24.988 24.988 0 0 1-24.988 24.987zM261.208 435.909h-83.21a12.494 12.494 0 0 1-12.492-12.436V267.74a12.494 12.494 0 0 1 12.493-12.494h83.21A12.494 12.494 0 0 1 273.7 267.74v155.733a12.494 12.494 0 0 1-12.493 12.434z m-70.716-24.988h58.222V280.234h-58.222z m70.716 254.656h-83.21a12.494 12.494 0 0 1-12.492-12.456V497.4a12.494 12.494 0 0 1 12.493-12.494h83.21A12.494 12.494 0 0 1 273.7 497.4v155.72a12.494 12.494 0 0 1-12.493 12.458z m-70.716-24.988h58.222V509.894h-58.222z m265.357-401.145h-94.144a12.494 12.494 0 0 1-12.492-12.494v-94.155a12.494 12.494 0 0 1 12.492-12.494h94.157a12.494 12.494 0 0 1 12.494 12.494v94.144a12.494 12.494 0 0 1-12.507 12.505zM374.2 214.456h69.167V145.29H374.2z m220.058 24.988h-94.144a12.494 12.494 0 0 1-12.493-12.494v-94.155a12.494 12.494 0 0 1 12.493-12.494h94.156a12.494 12.494 0 0 1 12.443 12.494v94.144a12.494 12.494 0 0 1-12.458 12.505z m-81.649-24.988h69.118V145.29h-69.12z m-56.76 200.688h-94.144a12.494 12.494 0 0 1-12.492-12.494v-94.096a12.494 12.494 0 0 1 12.492-12.494h94.157a12.494 12.494 0 0 1 12.494 12.494v94.144a12.494 12.494 0 0 1-12.507 12.446zM374.2 390.156h69.167v-69.108H374.2z m220.058 24.988h-94.144a12.494 12.494 0 0 1-12.493-12.494v-94.096a12.494 12.494 0 0 1 12.493-12.494h94.156a12.494 12.494 0 0 1 12.494 12.494v94.144a12.494 12.494 0 0 1-12.506 12.446z m-81.649-24.988h69.118v-69.108h-69.12z m-56.76 376.551h-94.144a12.494 12.494 0 0 1-12.492-12.494v-94.155a12.494 12.494 0 0 1 12.492-12.494h94.157a12.494 12.494 0 0 1 12.494 12.494v94.202a12.494 12.494 0 0 1-12.507 12.446zM374.2 741.72h69.167v-69.167H374.2z m220.058 24.988h-94.144a12.494 12.494 0 0 1-12.493-12.494v-94.155a12.494 12.494 0 0 1 12.493-12.494h94.156a12.494 12.494 0 0 1 12.494 12.494v94.202a12.494 12.494 0 0 1-12.506 12.446zM512.61 741.72h69.118v-69.167h-69.12z m-56.76-150.77h-94.144a12.494 12.494 0 0 1-12.492-12.495V484.31a12.494 12.494 0 0 1 12.492-12.492h94.157a12.494 12.494 0 0 1 12.494 12.492v94.146a12.494 12.494 0 0 1-12.507 12.492z m-81.65-24.99h69.167v-69.156H374.2z m220.058 24.988h-94.144a12.494 12.494 0 0 1-12.493-12.494V484.31a12.494 12.494 0 0 1 12.493-12.492h94.156a12.494 12.494 0 0 1 12.494 12.492v94.146a12.494 12.494 0 0 1-12.506 12.492zM512.61 565.96h69.118v-69.156h-69.12z m381.986-56.066H840.55a12.494 12.494 0 0 1-12.493-12.494V312.051a12.494 12.494 0 0 1 12.493-12.493h54.058A12.494 12.494 0 0 1 907.1 312.05V497.4a12.494 12.494 0 0 1-12.506 12.493z m-41.563-24.987h29.07V324.545H853.02z m41.563 285.285H840.55a12.494 12.494 0 0 1-12.493-12.493V572.35a12.494 12.494 0 0 1 12.493-12.494h54.058a12.494 12.494 0 0 1 12.493 12.494V757.7a12.494 12.494 0 0 1-12.506 12.494z m-41.563-24.987h29.07V584.846H853.02z m-612.8 118.227a12.494 12.494 0 0 1-12.34-10.59c-6.175-40.266-45.525-73.44-45.917-73.772a12.494 12.494 0 1 1 15.991-19.194 193.82 193.82 0 0 1 34.508 39.719c4.76-16.23 12.695-26.796 23.797-31.497a12.494 12.494 0 0 1 9.804 23.049c-11.005 4.653-14.837 37.255-13.373 58.993a12.494 12.494 0 0 1-11.103 13.27 12.625 12.625 0 0 1-1.369 0.023zM240.29 867.132a12.494 12.494 0 0 1-12.172-9.722c-3.664-16.1-36.006-23.738-51.093-24.917a12.494 12.494 0 0 1 1.938-24.916c6.605 0.511 64.827 6.14 73.512 44.277a12.506 12.506 0 0 1-12.197 15.278z m416.948 39.35H363.977a12.494 12.494 0 0 1 0-24.987h293.26a12.494 12.494 0 0 1 0 24.988z" /></svg>