<?xml version="1.0" standalone="no"?><!DOCTYPE svg PUBLIC "-//W3C//DTD SVG 1.1//EN" "http://www.w3.org/Graphics/SVG/1.1/DTD/svg11.dtd"><svg class="icon" width="200px" height="200.00px" viewBox="0 0 1024 1024" version="1.1" xmlns="http://www.w3.org/2000/svg"><path fill="#333333" d="M513.4 890.1H134V131.3h618.8v254.2c0 18.6 15.1 33.7 33.7 33.7s33.7-15.1 33.7-33.7V118.8c0-30.2-24.6-54.8-54.8-54.8H121.5c-30.2 0-54.8 24.6-54.8 54.8v783.9c0 30.2 24.6 54.8 54.8 54.8h391.9c18.6 0 33.7-15.1 33.7-33.7s-15.1-33.7-33.7-33.7z"  /><path fill="#333333" d="M906.8 801.6h-6.6c-11.1-3-20.5-8.3-27.8-16.6-21.3-23.9-25.9-66.1-25.8-93.7 26.5-21 43.8-53 43.8-89.3 0-63.1-51.3-114.4-114.4-114.4-63.1 0-114.4 51.3-114.4 114.4 0 36.3 17.4 68.4 43.9 89.4 0.2 27.7-4.3 69.9-25.6 93.8-7.3 8.2-16.6 13.5-27.7 16.5h-7c-29.5 0-53.4 24-53.4 53.4v49c0 29.5 24 53.4 53.4 53.4h261.7c29.5 0 53.4-24 53.4-53.4v-49c-0.1-29.5-24.1-53.5-53.5-53.5zM775.9 554.8c26 0 47.1 21.1 47.1 47.1S801.9 649 775.9 649c-25.9 0-47-21.1-47-47.1 0-25.9 21.1-47.1 47-47.1zM772 715.9c1.3 0 2.6 0.4 3.9 0.4 1.4 0 2.6-0.4 4-0.4 1.9 25.9 7.9 57.5 22.8 85.7h-53.4c14.9-28.2 20.8-59.7 22.7-85.7zM659 890.1v-20.8c0.6-0.1 1.2-0.3 1.8-0.4h230.5c0.5 0.1 1 0.3 1.5 0.4v20.8H659zM219.8 238.9c-18.6 0-33.7 15.1-33.7 33.7s15.1 33.7 33.7 33.7h435.7c18.6 0 33.7-15.1 33.7-33.7s-15.1-33.7-33.7-33.7H219.8zM563.9 398.9H219.8c-18.6 0-33.7 15.1-33.7 33.7s15.1 33.7 33.7 33.7h344.1c18.6 0 33.7-15.1 33.7-33.7s-15.1-33.7-33.7-33.7zM439 629.9c18.6 0 33.7-15.1 33.7-33.7s-15.1-33.7-33.7-33.7H219.8c-18.6 0-33.7 15.1-33.7 33.7s15.1 33.7 33.7 33.7H439z"  /></svg>