<?xml version="1.0" standalone="no"?><!DOCTYPE svg PUBLIC "-//W3C//DTD SVG 1.1//EN" "http://www.w3.org/Graphics/SVG/1.1/DTD/svg11.dtd"><svg t="1631621479762" class="icon" viewBox="0 0 1024 1024" version="1.1" xmlns="http://www.w3.org/2000/svg" p-id="3037" xmlns:xlink="http://www.w3.org/1999/xlink" width="200" height="200"><defs><style type="text/css"></style></defs><path d="M830.9 3.6H199.2c-77.7 0-140.9 63.2-140.9 140.9v736.2c0 77.7 63.2 140.9 140.9 140.9h631.7c77.7 0 140.9-63.2 140.9-140.9V144.5C971.7 66.8 908.5 3.6 830.9 3.6z m64 877c0 35.3-28.7 64-64 64H199.2c-35.3 0-64-28.7-64-64V144.5c0-35.3 28.7-64 64-64h631.7c35.3 0 64 28.7 64 64v736.1z" p-id="3038"></path><path d="M274.5 404.7h486.1c21.2 0 38.4-17.2 38.4-38.4s-17.2-38.4-38.4-38.4H351.3l28.7-30.7c14.5-15.5 13.6-39.8-1.9-54.3-15.5-14.4-39.8-13.7-54.3 1.9L245 329.2c-12.3 11.3-17.1 28.7-12 45.1 5.8 18.2 22.4 30.4 41.5 30.4zM755.5 620.4H269.4c-21.2 0-38.4 17.2-38.4 38.4s17.2 38.4 38.4 38.4h409.3L650 727.9c-14.5 15.5-13.6 39.8 1.9 54.3 7.4 6.9 16.8 10.3 26.2 10.3 10.3 0 20.5-4.1 28.1-12.2L785 696c12.3-11.3 17.2-28.7 12-45-5.6-18.3-22.4-30.6-41.5-30.6z" p-id="3039"></path></svg>