<?xml version="1.0" standalone="no"?><!DOCTYPE svg PUBLIC "-//W3C//DTD SVG 1.1//EN" "http://www.w3.org/Graphics/SVG/1.1/DTD/svg11.dtd"><svg t="1634206724675" class="icon" viewBox="0 0 1024 1024" version="1.1" xmlns="http://www.w3.org/2000/svg" p-id="2153" xmlns:xlink="http://www.w3.org/1999/xlink" width="200" height="200"><defs><style type="text/css"></style></defs><path d="M899.459459 636.540541c0-141.837838-122.852324-340.272432-367.311567-600.147027L512 14.944865l-20.147892 21.448649C247.392865 296.268108 124.540541 494.702703 124.540541 636.540541c0 213.988324 173.471135 387.459459 387.459459 387.459459s387.459459-173.471135 387.459459-387.459459z m-55.351351 0c0 183.406703-148.701405 332.108108-332.108108 332.108108S179.891892 819.947243 179.891892 636.540541c0-119.558919 110.315243-301.222054 332.108108-540.644325C733.792865 335.290811 844.108108 517.009297 844.108108 636.540541z" p-id="2154"></path><path d="M373.621622 525.837838h276.756756a27.675676 27.675676 0 0 1 0 55.351351H373.621622a27.675676 27.675676 0 0 1 0-55.351351z" p-id="2155"></path><path d="M484.324324 802.594595V525.837838a27.675676 27.675676 0 0 1 55.351352 0v276.756757a27.675676 27.675676 0 0 1-55.351352 0z" p-id="2156"></path><path d="M489.859459 503.199135l95.259676-136.025946a27.675676 27.675676 0 1 1 45.332757 31.744l-95.259676 136.025946a27.675676 27.675676 0 1 1-45.332757-31.744z" p-id="2157"></path><path d="M534.694054 503.503568l-95.259676-135.998271a27.675676 27.675676 0 1 0-45.332756 31.744l95.232 136.025946a27.675676 27.675676 0 1 0 45.332756-31.744zM373.621622 636.540541h276.756756a27.675676 27.675676 0 0 1 0 55.351351H373.621622a27.675676 27.675676 0 0 1 0-55.351351z" p-id="2158"></path></svg>