<?xml version="1.0" standalone="no"?><!DOCTYPE svg PUBLIC "-//W3C//DTD SVG 1.1//EN" "http://www.w3.org/Graphics/SVG/1.1/DTD/svg11.dtd"><svg class="icon" width="200px" height="197.49px" viewBox="0 0 1037 1024" version="1.1" xmlns="http://www.w3.org/2000/svg"><path fill="#333333" d="M682.235145 808.449289H356.40159c-55.572943 0-100.929329-45.484676-101.150921-101.290874V522.52562c0-55.852849 45.20477-101.465815 100.789376-101.675744h325.821893c55.677908 0.209929 100.882678 45.822895 100.882678 101.675744v184.516168c-0.174941 55.561281-45.228095 101.022631-100.427831 101.407501zM356.110022 472.737395c-26.964249 0.093302-48.983497 22.439107-48.983497 49.788225v184.539493c0.093302 27.302468 22.205852 49.461669 49.275065 49.461669h325.658614c26.824296-0.25658 48.691928-22.474095 48.796893-49.589959V522.52562c0-27.349119-22.030911-49.694924-49.088461-49.788225z"  /><path fill="#333333" d="M519.481646 736.828419c-29.798294 0.781403-55.199736-24.211843-55.479641-54.709901v-55.04812a79.306614 79.306614 0 0 1-17.400805-86.129315 78.501885 78.501885 0 1 1 127.893578 86.02435v54.91983a55.083108 55.083108 0 0 1-55.04812 54.931493z m3.160602-54.931493v-80.69448l11.347843-7.720732a26.392775 26.392775 0 0 0 11.464471-22.065899v-0.326556a26.824296 26.824296 0 0 0-21.272833-26.381112 25.797975 25.797975 0 0 0-5.143267-0.501498 26.532727 26.532727 0 0 0-24.491748 16.456122 27.057551 27.057551 0 0 0 9.820024 32.655665l11.487797 7.720732v80.846095a3.148939 3.148939 0 0 0 3.090625 3.043975c1.306227 0.268243 1.95934-0.163278 3.230578-1.166274a4.30355 4.30355 0 0 0 0.46651-1.877701zM0 971.739274h1037.983622v52.260726H0z"  /><path fill="#333333" d="M932.179269 1016.780766H105.79269V119.239826A119.391442 119.391442 0 0 1 225.055842 0h587.860275a119.379779 119.379779 0 0 1 119.263152 119.239826z m-774.487398-51.899182h722.59988V119.239826a67.433947 67.433947 0 0 0-67.375634-67.352308h-587.801961a67.433947 67.433947 0 0 0-67.363971 67.352308z"  /><path fill="#333333" d="M679.097869 467.22092h-51.887518v-88.776756c0-60.191387-48.540313-109.163221-108.21854-109.163222s-108.21854 48.983497-108.21854 109.163222v88.776756h-51.899181v-88.776756c0-88.811745 71.842462-161.05074 160.117721-161.05074s160.106058 72.238995 160.106058 161.05074z"  /></svg>