<?xml version="1.0" standalone="no"?><!DOCTYPE svg PUBLIC "-//W3C//DTD SVG 1.1//EN" "http://www.w3.org/Graphics/SVG/1.1/DTD/svg11.dtd"><svg class="icon" width="200px" height="200.00px" viewBox="0 0 1024 1024" version="1.1" xmlns="http://www.w3.org/2000/svg"><path fill="#333333" d="M849.822716 315.545252 176.769047 315.545252c-60.418236 0-109.566514 49.148277-109.566514 109.566514l0 414.788973c0 60.418037 49.148277 109.566514 109.566514 109.566514l673.05347 0c60.403446 0 109.566514-49.148477 109.566514-109.566514L959.38903 425.111766C959.38903 364.67794 910.225963 315.545252 849.822716 315.545252L849.822716 315.545252zM896.77948 839.900739c0 25.889047-21.067116 46.956963-46.956963 46.956963L176.769047 886.857702c-25.889047 0-46.956963-21.068715-46.956963-46.956963L129.812083 425.111766c0-25.889847 21.067916-46.956963 46.956963-46.956963l673.05347 0c25.889847 0 46.956963 21.067116 46.956963 46.956963L896.77948 839.900739 896.77948 839.900739zM658.972912 606.178803c13.524031 0 24.52797-10.98835 24.52797-24.52797 0-13.53962-11.004139-24.54276-24.52797-24.54276l-91.800959 0 93.617727-93.601138c9.578506-9.594295 9.578506-25.122367 0-34.701672-9.579505-9.594295-25.106578-9.594295-34.701672 0l-111.461629 111.493008-111.492208-111.493008c-9.579505-9.594295-25.106578-9.594295-34.701672 0-9.578506 9.563716-9.578506 25.107377 0 34.701672l93.617727 93.601138-94.446365 0c-13.555409 0-24.52797 11.00314-24.52797 24.54276 0 13.53962 10.97276 24.52797 24.52797 24.52797l121.149061 0 0 54.063545-121.149061 0c-13.555409 0-24.52797 10.98835-24.52797 24.543759 0 13.53962 10.97276 24.510582 24.52797 24.510582l121.149061 0 0 115.592628c0 13.53962 10.97276 24.52797 24.52797 24.52797 13.53962 0 24.526371-10.98835 24.526371-24.52797l0-115.592628 121.149061 0c13.523031 0 24.52797-10.971761 24.52797-24.510582 0-13.555409-11.004139-24.543759-24.52797-24.543759l-121.149061 0 0-54.063545L658.972912 606.178803 658.972912 606.178803zM179.696862 276.663814l667.18325 0c17.280284 0 31.304376-14.023292 31.304376-31.304376 0-17.295873-14.024891-31.305175-31.304376-31.305175l-667.18325 0c-17.280284 0-31.305175 14.008502-31.305175 31.305175C148.391487 262.640522 162.416578 276.663814 179.696862 276.663814L179.696862 276.663814zM262.857678 176.239302l500.876606 0c17.281083 0 31.305175-14.024891 31.305175-31.304376 0-17.295873-14.023292-31.304376-31.305175-31.304376L262.857479 113.63055c-17.280284 0-31.305175 14.009302-31.305175 31.304376C231.552304 162.214411 245.561605 176.239302 262.857678 176.239302L262.857678 176.239302z" /></svg>