<?xml version="1.0" standalone="no"?><!DOCTYPE svg PUBLIC "-//W3C//DTD SVG 1.1//EN" "http://www.w3.org/Graphics/SVG/1.1/DTD/svg11.dtd"><svg class="icon" width="200px" height="180.28px" viewBox="0 0 1136 1024" version="1.1" xmlns="http://www.w3.org/2000/svg"><path fill="#333333" d="M549.991339 9.206606a21.391266 21.391266 0 0 1 27.798312 0l519.478019 423.278385a74.808367 74.808367 0 0 1 27.798312 85.508697 76.959706 76.959706 0 0 1-74.827156 53.454679h-47.028844V699.702018a21.372477 21.372477 0 1 1-42.754349 0V550.047706a21.372477 21.372477 0 0 1 21.372477-21.372477h68.410716a34.195963 34.195963 0 0 0 34.195963-23.514422 34.195963 34.195963 0 0 0-12.823486-38.479853L564.966165 54.093505 60.434789 464.539009a34.214752 34.214752 0 0 0 19.249321 64.145615h68.401321a21.372477 21.372477 0 0 1 21.381872 21.372477v391.214972a36.347303 36.347303 0 0 0 36.347303 36.347303h718.28433a36.347303 36.347303 0 0 0 36.356697-36.347303v-27.788917a21.372477 21.372477 0 1 1 42.744954 0v27.788917a79.101651 79.101651 0 0 1-79.101651 79.101652H205.833394a79.101651 79.101651 0 0 1-79.101651-79.101652V571.438972H79.693505A76.959706 76.959706 0 0 1 4.885138 515.851743a76.959706 76.959706 0 0 1 29.921468-85.508697zM703.929541 293.521615a21.381872 21.381872 0 0 1 29.930863 0L868.521101 428.210495c8.145028 8.314128 8.145028 21.607339 0 29.930863l-87.650642 85.499303-66.268771 66.278165 138.963376 138.97277c8.145028 8.304734 8.145028 21.607339 0 29.921468L718.885578 913.501945c-8.314128 8.145028-21.607339 8.145028-29.930862 0l-104.748624-94.067083a21.381872 21.381872 0 0 1 0-29.921468c5.354862-5.984294 13.612624-8.46444 21.372477-6.425834l42.754348-42.744954a21.381872 21.381872 0 0 1 29.930863 29.921467l-38.479853 38.479854 14.965431 12.823486 40.621798-40.612404a21.381872 21.381872 0 0 1 29.930862 29.921468l-40.621798 40.621798 19.249321 17.097982 104.748624-104.748624L686.83156 639.859083 462.340697 862.189211l-10.690936 6.41644-168.884844 34.195964h-4.274495a21.381872 21.381872 0 0 1-21.381872-25.646973L291.323303 708.251009c1.033394-4.133578 3.269284-7.844404 6.41644-10.690936l226.614018-226.604623L402.497761 349.09945l-104.748623 104.748623 19.239926 21.372477 38.479853-38.479853a21.372477 21.372477 0 0 1 29.921468 29.930863L344.777982 507.302752l8.539596 10.690936 36.347303-36.347303a21.372477 21.372477 0 1 1 29.930862 29.930863l-38.479853 38.479853a21.381872 21.381872 0 0 1-32.063413 25.646972L248.578349 468.832294a21.381872 21.381872 0 0 1 0-29.930863l134.679486-134.670092a21.381872 21.381872 0 0 1 29.921468 0l138.953981 138.953982 66.278166-66.278165z m-70.55266 130.404991L331.954495 723.21644l-25.646972 130.404991 130.395596-25.646972 301.441175-299.289835L633.376881 423.926606z m348.460624 339.911633a21.372477 21.372477 0 0 1 21.381871 21.372477v42.754348a21.372477 21.372477 0 1 1-42.754348 0v-42.744954a21.372477 21.372477 0 0 1 21.372477-21.381871zM716.753028 338.417908l-53.454679 53.445285 104.758018 104.748624 53.454679-53.445285-104.758018-104.748624z" /></svg>