<?xml version="1.0" standalone="no"?><!DOCTYPE svg PUBLIC "-//W3C//DTD SVG 1.1//EN" "http://www.w3.org/Graphics/SVG/1.1/DTD/svg11.dtd"><svg t="1606820770407" class="icon" viewBox="0 0 1024 1024" version="1.1" xmlns="http://www.w3.org/2000/svg" p-id="3717" xmlns:xlink="http://www.w3.org/1999/xlink" width="80" height="80"><defs><style type="text/css"></style></defs><path d="M990.75843 442.679335l-386.736342-403.76247c-24.32304-24.32304-55.942993-38.916865-89.995249-38.916865-34.052257 0-65.672209 14.593824-89.995249 38.916865l-386.736342 403.76247c-38.916865 41.349169-34.052257 77.833729-29.187648 92.427553 4.864608 9.729216 19.458432 38.916865 65.672209 38.916865l55.942993 0 0 308.902613c0 70.536817 51.078385 136.209026 121.615202 136.209026l65.672209 0 99.724466 0 0-72.969121 0-255.391924c0-34.052257-4.864608-55.942993 31.619952-55.942993l65.672209 0 65.672209 0c36.484561 0 31.619952 19.458432 31.619952 55.942993l0 255.391924 0 72.969121 99.724466 0 65.672209 0c72.969121 0 121.615202-65.672209 121.615202-136.209026l0-308.902613 55.942993 0c46.213777 0 60.807601-29.187648 65.672209-38.916865C1024.810687 520.513064 1029.675295 486.460808 990.75843 442.679335zM951.841566 513.216152l-48.646081 0-31.619952 0-38.916865 0 0 374.574822c0 34.052257-21.890736 72.969121-58.375297 72.969121l-102.15677 0 0-265.12114c0-70.536817-21.890736-119.182898-94.859857-119.182898l-65.672209 0-65.672209 0c-72.969121 0-94.859857 48.646081-94.859857 119.182898l0 265.12114-102.15677 0c-36.484561 0-58.375297-36.484561-58.375297-72.969121l0-374.574822-38.916865 0-31.619952 0-48.646081 0c0 0-2.432304-4.864608-2.432304-4.864608 2.432304-4.864608 4.864608-14.593824 12.16152-19.458432l386.736342-403.76247c12.16152-12.16152 26.755344-19.458432 43.781473-19.458432 17.026128 0 31.619952 7.296912 43.781473 19.458432l386.736342 403.76247c7.296912 7.296912 9.729216 17.026128 12.16152 19.458432C954.27387 508.351544 951.841566 513.216152 951.841566 513.216152z" p-id="3718"></path></svg>