<?xml version="1.0" standalone="no"?><!DOCTYPE svg PUBLIC "-//W3C//DTD SVG 1.1//EN" "http://www.w3.org/Graphics/SVG/1.1/DTD/svg11.dtd"><svg class="icon" width="200px" height="200.00px" viewBox="0 0 1024 1024" version="1.1" xmlns="http://www.w3.org/2000/svg"><path fill="#333333" d="M258.2 56.2c-33.6 0-65.4 7.6-93.8 21.3l159.9 161.9c21.3 21.6 25.4 52.5 9.1 69.1L289 353.4c-16.3 16.5-46.9 12.4-68.2-9.2L60.4 181.9c-14 29.2-21.8 62-21.8 96.7 0 122.8 98.3 222.4 219.6 222.4s219.6-99.6 219.6-222.4S379.5 56.2 258.2 56.2zM913.3 790.3L416.1 286.8 268.5 436.2l496.8 502.9c19.2 22.5 47.5 36.8 79.1 36.8 57.7 0 104.5-47.5 104.5-106 0-31.7-13.8-60.2-35.6-79.6zM380.9 615.8L218.4 780.4l44.3 44.8 162.5-164.5zM168.7 794.6L46.6 952.5 101 999l155.7-129.1 41.9-126.3zM950.4 81.9c-38.3-38.8-99-41.2-140-7.1l-0.4-0.4-266 269.3 29.6 29.9 243.8-246.8c8.2-8.3 21.4-8.3 29.6 0 8.2 8.3 8.2 21.7 0 29.9L603.2 403.5l29.6 29.9 243.8-246.8c8.2-8.3 21.4-8.3 29.6 0 8.2 8.3 8.2 21.7 0 29.9L662.3 463.4l29.6 29.9 266-269.3-0.4-0.4c33.5-41.5 31.2-102.9-7.1-141.7zM790.3 855.8a47.7 47.7 0 1 0 95.4 0 47.7 47.7 0 1 0-95.4 0z" /></svg>