<?xml version="1.0" standalone="no"?><!DOCTYPE svg PUBLIC "-//W3C//DTD SVG 1.1//EN" "http://www.w3.org/Graphics/SVG/1.1/DTD/svg11.dtd"><svg t="1631278786352" class="icon" viewBox="0 0 1045 1024" version="1.1" xmlns="http://www.w3.org/2000/svg" p-id="2618" xmlns:xlink="http://www.w3.org/1999/xlink" width="204.1015625" height="200"><defs><style type="text/css"></style></defs><path d="M528.782821 443.720758c72.461474 0 131.476211-57.063747 131.476211-127.272421 0-70.203284-59.014737-127.272421-131.476211-127.272421-72.456084 0-131.470821 57.069137-131.470821 127.272421 0 70.208674 58.998568 127.272421 131.470821 127.272421z m0-192.037726c36.475958 0 65.994105 29.324126 65.994105 65.509052 0 36.131032-29.518147 65.509053-65.994105 65.509053-36.422063 0-65.988716-29.372632-65.988716-65.509053 0-36.184926 29.566653-65.509053 65.988716-65.509052z m-127.250863 384.565894c1.897095 2.700126 3.761853 4.872084 5.292463 6.435032 44.355368 53.684547 89.061053 89.400589 90.990484 90.909642l31.151158 24.759242 31.016421-24.953263c1.929432-1.509053 46.4896-37.640084 90.764127-91.136 1.509053-1.606063 3.449263-3.842695 5.3248-6.596716 63.310147-82.405053 142.012632-201.819621 159.803284-305.205895 3.427705-23.568168 3.524716-37.834105 3.524716-39.397052 0.592842-77.252716-30.234947-149.859705-86.748969-204.207158C677.920337 34.223158 605.4912 5.243958 528.782821 5.243958c-76.417347 0-148.652463 28.973811-203.382568 81.6128C268.579032 141.495242 237.568 214.468716 238.160842 292.287326c0 1.239579 0.097011 15.554021 3.395369 37.99579 19.094905 110.624337 107.934989 238.521937 159.981136 305.960421zM528.782821 85.730358c119.808 0 217.880253 95.727832 217.012547 214.662737 0 0 0 10.762779-2.603115 28.607326-14.336 83.288926-82.017011 186.459621-136.283621 256.9216-0.431158 0.840758-1.304253 1.643789-1.724632 2.074947-37.769432 45.982989-76.401179 77.080253-76.401179 77.080253s-38.642526-30.682274-76.401179-76.659874c-0.414989-0.420379-1.282695-1.271916-1.73541-2.074947-54.266611-70.030821-121.947621-173.638063-136.267453-256.538947-2.603116-17.790653-2.603116-28.601937-2.603116-28.601937-0.883874-118.924126 97.204547-215.471158 217.007158-215.471158zM215.341811 1018.772211H932.810105c61.725642 0 112.871747-46.866863 112.871748-106.134906 0-59.268042-51.146105-106.118737-112.871748-106.118737H112.850189c-23.185516 0-40.884547-16.211537-40.884547-34.7136 0-18.518232 17.699032-34.735158 40.879158-34.735157h128.123958a35.829221 35.829221 0 0 0 35.990905-35.699874 35.84 35.84 0 0 0-35.990905-35.699874H112.8448c-61.709474 0-112.855579 46.850695-112.855579 106.134905 0 59.268042 51.146105 106.118737 112.855579 106.118737h819.954526c23.201684 0 40.900716 16.195368 40.900716 34.7136s-17.699032 34.718989-40.895326 34.71899H215.341811a35.861558 35.861558 0 0 0-35.985516 35.716042 35.861558 35.861558 0 0 0 35.985516 35.699874z" p-id="2619"></path></svg>