<?xml version="1.0" standalone="no"?><!DOCTYPE svg PUBLIC "-//W3C//DTD SVG 1.1//EN" "http://www.w3.org/Graphics/SVG/1.1/DTD/svg11.dtd"><svg class="icon" width="81px" height="81.00px" viewBox="0 0 1024 1024" version="1.1" xmlns="http://www.w3.org/2000/svg"><path fill="#646566" d="M554.666667 768v85.333333h170.666666v42.666667H341.333333v-42.666667h170.666667v-85.333333c-166.4-12.8-298.666667-149.333333-298.666667-320S345.6 140.8 512 128h42.666667c166.4 12.8 298.666667 149.333333 298.666666 320s-132.266667 307.2-298.666666 320z m-21.333334-42.666667c153.6 0 277.333333-123.733333 277.333334-277.333333S686.933333 170.666667 533.333333 170.666667 256 294.4 256 448 379.733333 725.333333 533.333333 725.333333z m0-213.333333c-34.133333 0-64-29.866667-64-64S499.2 384 533.333333 384s64 29.866667 64 64-29.866667 64-64 64z"  /></svg>