<?xml version="1.0" standalone="no"?><!DOCTYPE svg PUBLIC "-//W3C//DTD SVG 1.1//EN" "http://www.w3.org/Graphics/SVG/1.1/DTD/svg11.dtd"><svg t="1631621461044" class="icon" viewBox="0 0 1024 1024" version="1.1" xmlns="http://www.w3.org/2000/svg" p-id="2146" xmlns:xlink="http://www.w3.org/1999/xlink" width="200" height="200"><defs><style type="text/css"></style></defs><path d="M875.89 2.207H147.843C67.41 2.207 2.207 67.411 2.207 147.843V875.89c0 80.432 65.204 145.635 145.636 145.635H875.89c80.432 0 145.635-65.203 145.635-145.635V147.843c0-80.432-65.203-145.636-145.635-145.636z m72.886 873.882a72.63 72.63 0 0 1-72.787 72.688H148.01c-19.47 0-37.854-7.48-51.623-21.25S74.957 895.56 74.957 876.09V147.91a73.086 73.086 0 0 1 73.054-72.954H875.99a72.861 72.861 0 0 1 72.787 72.954V876.09z" p-id="2147"></path><path d="M830.576 329.787h-291.27a36.375 36.375 0 0 0 0 72.75h291.272a36.375 36.375 0 0 0 0-72.75z m0 291.409h-291.27a36.375 36.375 0 0 0 0 72.75h291.272a36.375 36.375 0 0 0 0-72.75z m-509.72-90.994c-70.379 0-127.416 57.053-127.416 127.414s57.053 127.417 127.416 127.417S448.27 727.98 448.27 657.617s-57.037-127.414-127.414-127.414z m38.664 166.095a54.665 54.665 0 1 1 16.029-38.664 54.324 54.324 0 0 1-16.03 38.669z m44.842-428.47L284.443 387.74l-47.093-47.098a36.375 36.375 0 1 0-51.443 51.442l72.815 72.82a36.375 36.375 0 0 0 51.443 0l145.636-145.636a36.375 36.375 0 0 0-51.44-51.442z" p-id="2148"></path></svg>