<?xml version="1.0" standalone="no"?><!DOCTYPE svg PUBLIC "-//W3C//DTD SVG 1.1//EN" "http://www.w3.org/Graphics/SVG/1.1/DTD/svg11.dtd"><svg class="icon" width="200px" height="200.00px" viewBox="0 0 1024 1024" version="1.1" xmlns="http://www.w3.org/2000/svg"><path fill="#333333" d="M865.226369 321.996598 865.226369 96.91733c0-18.520819-15.154141-33.587979-33.781384-33.587979-17.495466 0-31.927153 13.283538-33.624818 30.235628-3.346211 1.449002-6.734378 3.241834-10.126638 5.362124L594.757331 219.650629c-16.598027 10.387581-35.789111 22.399149-53.922097 33.757848L214.210221 253.408477c-32.464389 0-58.874899 26.228361-58.874899 58.468646l0 2.832512c-25.305339 1.333368-45.482891 22.204721-45.482891 47.668673l0 134.683469c0 25.447579 20.177552 46.304605 45.482891 47.63695l0 2.831488c0 31.931247 25.889647 57.967226 57.911968 58.478879l81.757049 309.069171c6.952342 26.298969 30.92636 44.667316 58.298777 44.667316 5.125741 0 10.267854-0.660032 15.290241-1.962701l112.355951-29.256324c15.626909-4.078899 28.702716-13.991666 36.820604-27.90863 8.04114-13.789051 10.223852-29.846772 6.147-45.208645L487.353159 717.198475l1.425466-0.37146c8.526187-2.238994 13.657045-10.982122 11.429307-19.519566l-19.221784-72.572876c-1.829671-7.02602-8.197706-11.933797-15.487739-11.933797-1.372254 0-2.744507 0.177032-4.065596 0.523933l-1.449002 0.3776-2.032286-7.686053 82.933851 0c21.343097 13.364379 44.157709 27.636431 62.469773 39.09132l184.342472 115.374704c3.38919 2.116197 6.77531 3.908006 10.121522 5.355985 1.689479 16.95209 16.126282 30.238698 33.625842 30.238698 18.627243 0 33.781384-15.061021 33.781384-33.573653L865.226369 537.426089c32.19833-27.098171 50.585095-66.131163 50.585095-107.706047C915.811464 388.133901 897.424698 349.095793 865.226369 321.996598zM506.068406 555.189661 391.680169 555.189661l82.830497 313.169559c0.606821 2.295276 0.276293 4.700045-0.932232 6.770194-1.234107 2.114151-3.223415 3.621481-5.595438 4.242627L355.633185 908.619156c-0.74292 0.196475-1.505283 0.296759-2.26867 0.296759-4.145413 0-7.91118-2.850931-8.952906-6.77224l-85.147262-321.923944c-0.086981-0.320295-0.14224-1.000793-0.197498-1.687432l-1.926886-23.342638-42.930765 0c-4.284583 0-7.770987-3.436262-7.770987-7.66047L206.438211 311.877123c0-4.214998 3.486404-7.644097 7.770987-7.644097l291.858184 0L506.067382 555.189661zM797.653367 706.659445l-157.739581-98.732675c-22.315238-13.939477-54.841026-34.299177-82.739423-51.774177L557.174364 303.238372l82.762959-51.814086 157.717068-98.680487L797.65439 706.659445z" /></svg>