<?xml version="1.0" encoding="UTF-8"?>
<svg width="164px" height="164px" viewBox="0 0 164 164" version="1.1" xmlns="http://www.w3.org/2000/svg" xmlns:xlink="http://www.w3.org/1999/xlink">
    <title>system-mode</title>
    <g id="页面-1" stroke="none" stroke-width="1" fill="none" fill-rule="evenodd">
        <g id="system-mode" transform="translate(0.750000, 0.750000)" fill-rule="nonzero">
            <path d="M93.75,50 L87.5,50 L87.5,6.25 L6.25,6.25 L6.25,62.5 L43.75,62.5 L43.75,68.75 L6.25,68.75 C2.79822031,68.75 0,65.9517797 0,62.5 L0,6.25 C0,2.79822031 2.79822031,0 6.25,0 L87.5,0 C90.9517797,0 93.75,2.79822031 93.75,6.25 L93.75,50 Z M43.75,81.25 L43.75,68.75 L50,68.75 L50,87.5 L18.75,87.5 L18.75,81.25 L43.75,81.25 Z" id="形状" fill="#808FA1"></path>
            <path d="M106.25,143.75 L106.25,156.25 L131.25,156.25 L131.25,162.5 L75,162.5 L75,156.25 L100,156.25 L100,143.75 L50,143.75 C46.5482203,143.75 43.75,140.95178 43.75,137.5 L43.75,56.25 C43.75,52.7982203 46.5482203,50 50,50 L156.25,50 C159.70178,50 162.5,52.7982203 162.5,56.25 L162.5,137.5 C162.5,140.95178 159.70178,143.75 156.25,143.75 L106.25,143.75 Z M50,56.25 L50,137.5 L156.25,137.5 L156.25,56.25 L50,56.25 Z" id="形状" fill="#5D6D7E"></path>
            <path d="M106.41875,12.7 L106.41875,6.45 L118.91875,6.45 L118.91875,12.7 L106.41875,12.7 Z M131.41875,12.7 L131.41875,6.45 L137.61875,6.45 L137.61875,18.99375 L131.36875,18.99375 L131.36875,9.575 L134.49375,9.575 L134.49375,12.7 L131.41875,12.7 Z M131.36875,31.49375 L137.61875,31.49375 L137.61875,43.99375 L131.36875,43.99375 L131.36875,31.49375 Z M40.75,115.6375 L40.75,121.8875 L28.25,121.8875 L28.25,115.6375 L40.75,115.6375 Z M15.75,115.6375 L15.75,121.8875 L3.29375,121.8875 L3.29375,115.59375 L9.54375,115.59375 L9.54375,118.7625 L6.41875,115.6375 L15.74375,115.6375 L15.75,115.6375 Z M9.55,103.09375 L3.3,103.09375 L3.3,90.59375 L9.55,90.59375 L9.55,103.09375 Z" id="形状" fill="#27A2DF"></path>
        </g>
    </g>
</svg>