<?xml version="1.0" standalone="no"?><!DOCTYPE svg PUBLIC "-//W3C//DTD SVG 1.1//EN" "http://www.w3.org/Graphics/SVG/1.1/DTD/svg11.dtd"><svg t="1633074331950" class="icon" viewBox="0 0 1024 1024" version="1.1" xmlns="http://www.w3.org/2000/svg" p-id="22362" xmlns:xlink="http://www.w3.org/1999/xlink" width="81" height="81"><defs><style type="text/css"></style></defs><path d="M278.1 504c0 39.8-32.2 72-72 72s-72-32.2-72-72 32.2-72 72-72 72 32.2 72 72z m248-72c-39.8 0-72 32.2-72 72s32.2 72 72 72 72-32.2 72-72-32.3-72-72-72z m304 0c-39.8 0-72 32.2-72 72s32.2 72 72 72 72-32.2 72-72-32.3-72-72-72z" p-id="22363"></path></svg>