<?xml version="1.0" standalone="no"?><!DOCTYPE svg PUBLIC "-//W3C//DTD SVG 1.1//EN" "http://www.w3.org/Graphics/SVG/1.1/DTD/svg11.dtd"><svg t="1625925450964" class="icon" viewBox="0 0 1024 1024" version="1.1" xmlns="http://www.w3.org/2000/svg" p-id="4267" xmlns:xlink="http://www.w3.org/1999/xlink" width="200" height="200"><defs><style type="text/css"></style></defs><path d="M628.736 825.490286h50.322286v150.674285h-50.322286z" fill="#4D5573" p-id="4268"></path><path d="M880.054857 801.938286c-0.950857 2.413714-2.56 4.608-9.142857 4.608h-52.662857v127.414857c0 20.187429-13.238857 42.130286-34.377143 42.130286h-54.564571v-150.747429a50.468571 50.468571 0 0 0-50.322286-50.322286h-50.249143a50.468571 50.468571 0 0 0-50.322286 50.322286v150.747429H531.017143c-21.357714 0-34.450286-21.942857-34.450286-42.130286v-127.414857h-52.662857c-6.582857 0-8.192-2.194286-9.142857-4.461715-0.731429-2.267429 0-9.069714 8.704-18.285714l188.123428-198.217143a34.377143 34.377143 0 0 1 25.746286-11.190857c10.166857 0 18.944 3.730286 25.892572 11.190857l187.904 198.217143c8.850286 9.362286 9.728 16.237714 8.923428 18.139429z" fill="#4D5573" p-id="4269"></path><path d="M494.08 589.604571a241.078857 241.078857 0 1 1 0-482.230857 241.078857 241.078857 0 0 1 0 482.230857z m0-409.161142a167.862857 167.862857 0 0 0-167.350857 168.009142c0 92.598857 75.044571 167.936 167.350857 167.936s167.350857-75.337143 167.350857-167.936a167.862857 167.862857 0 0 0-167.350857-168.009142z" fill="#4D5573" p-id="4270"></path><path d="M168.009143 946.395429a36.571429 36.571429 0 0 1-36.571429-36.571429c0-212.553143 172.470857-385.536 384.512-385.536a36.571429 36.571429 0 0 1 0 73.142857c-171.739429 0-311.369143 140.141714-311.369143 312.393143a36.571429 36.571429 0 0 1-36.571428 36.571429z" fill="#4D5573" p-id="4271"></path></svg>