<?xml version="1.0" standalone="no"?><!DOCTYPE svg PUBLIC "-//W3C//DTD SVG 1.1//EN" "http://www.w3.org/Graphics/SVG/1.1/DTD/svg11.dtd"><svg class="icon" width="200px" height="200.00px" viewBox="0 0 1024 1024" version="1.1" xmlns="http://www.w3.org/2000/svg"><path fill="#333333" d="M517.12 145.92c201.728 0 366.08 164.352 366.08 366.08s-164.352 366.08-366.08 366.08S151.04 713.728 151.04 512 315.392 145.92 517.12 145.92M517.12 87.04c-234.496 0-424.96 190.464-424.96 424.96 0 234.496 189.952 424.96 424.96 424.96 234.496 0 424.96-190.464 424.96-424.96C942.08 277.504 751.616 87.04 517.12 87.04L517.12 87.04zM300.544 729.6c-7.68 0-14.848-3.072-20.48-8.704-11.264-11.264-21.504-23.04-31.232-35.328-3.584-4.608-6.656-9.216-10.24-13.824-9.216-13.312-6.144-31.232 6.656-40.96 13.312-9.216 31.232-6.144 40.96 6.656 3.072 4.096 5.632 7.68 8.704 11.776 8.192 10.24 16.896 20.48 26.112 29.696 11.264 11.264 11.264 30.208 0 41.472C315.904 726.528 308.224 729.6 300.544 729.6zM500.224 827.904c-1.536 0-2.56 0-4.096 0-50.176-6.656-97.28-23.04-140.8-48.64-13.824-8.192-18.432-26.112-10.24-39.936 8.192-13.824 26.112-18.432 39.936-10.24 36.864 21.504 76.8 35.328 118.784 40.96 15.872 2.048 27.136 16.896 25.088 32.768C527.36 817.152 515.072 827.904 500.224 827.904zM665.6 465.408 368.64 465.408c-16.384 0-29.184-13.312-29.184-29.184s13.312-29.184 29.184-29.184l296.96 0c16.384 0 29.184 13.312 29.184 29.184S681.472 465.408 665.6 465.408zM665.6 584.704 368.64 584.704c-16.384 0-29.184-13.312-29.184-29.184s13.312-29.184 29.184-29.184l296.96 0c16.384 0 29.184 13.312 29.184 29.184S681.472 584.704 665.6 584.704zM517.12 718.336c-16.384 0-29.184-13.312-29.184-29.184L487.936 441.856c0-16.384 13.312-29.184 29.184-29.184s29.184 13.312 29.184 29.184l0 246.784C546.304 705.024 533.504 718.336 517.12 718.336zM498.688 462.336c-10.24 0-19.456-5.12-25.088-14.336L414.72 350.208c-8.192-13.824-3.584-31.744 10.24-39.936 13.824-8.192 31.744-3.584 39.936 10.24l58.368 98.304c8.192 13.824 3.584 31.744-10.24 39.936C508.928 461.312 503.808 462.336 498.688 462.336zM530.432 462.336c-5.12 0-10.24-1.536-14.848-4.096-13.824-8.192-18.432-26.112-10.24-39.936l58.368-98.304c8.192-13.824 26.112-18.432 39.936-10.24 13.824 8.192 18.432 26.112 10.24 39.936l-58.368 98.304C550.4 457.216 540.672 462.336 530.432 462.336z" /></svg>