<?xml version="1.0" standalone="no"?><!DOCTYPE svg PUBLIC "-//W3C//DTD SVG 1.1//EN" "http://www.w3.org/Graphics/SVG/1.1/DTD/svg11.dtd"><svg class="icon" width="200px" height="200.00px" viewBox="0 0 1024 1024" version="1.1" xmlns="http://www.w3.org/2000/svg"><path fill="#333333" d="M800.582 53.527h-37.237V23.273H262.982v30.254h-39.564c-46.545 0-83.782 37.237-83.782 83.782v802.91c0 46.545 37.237 83.781 83.782 83.781h512c13.964 0 23.273-9.31 23.273-23.273s-9.31-23.272-23.273-23.272h-512c-20.945 0-37.236-16.291-37.236-37.237V137.31c0-20.945 16.29-37.236 37.236-37.236h37.237v60.509h500.363v-60.51h37.237c23.272 0 39.563 16.292 39.563 37.237v856.436c0 13.964 9.31 23.273 23.273 23.273s23.273-9.309 23.273-23.273V137.31c0-46.545-37.237-83.782-83.782-83.782zM747.055 621.382H397.964c-13.964 0-23.273 9.309-23.273 23.273s9.309 23.272 23.273 23.272h349.09c13.964 0 23.273-9.309 23.273-23.272s-11.636-23.273-23.272-23.273zM276.945 644.655a30.255 30.255 0 1 0 60.51 0 30.255 30.255 0 1 0-60.51 0zM747.055 826.182H397.964c-13.964 0-23.273 9.309-23.273 23.273s9.309 23.272 23.273 23.272h349.09c13.964 0 23.273-9.309 23.273-23.272s-11.636-23.273-23.272-23.273zM276.945 849.455a30.255 30.255 0 1 0 60.51 0 30.255 30.255 0 1 0-60.51 0zM747.055 416.582H397.964c-13.964 0-23.273 9.309-23.273 23.273s9.309 23.272 23.273 23.272h349.09c13.964 0 23.273-9.309 23.273-23.272s-11.636-23.273-23.272-23.273z m-393.31-44.218c-11.636-4.655-25.6 0-30.254 13.963L302.545 435.2l-13.963-9.31c-11.637-6.98-25.6-2.326-32.582 6.983s-2.327 25.6 6.982 32.582l37.236 23.272c4.655 2.328 6.982 2.328 11.637 2.328 2.327 0 4.654 0 6.981-2.328 6.982-2.327 11.637-6.982 13.964-13.963l30.255-76.8c9.309-6.982 2.327-20.946-9.31-25.6z" /></svg>