<?xml version="1.0" standalone="no"?><!DOCTYPE svg PUBLIC "-//W3C//DTD SVG 1.1//EN" "http://www.w3.org/Graphics/SVG/1.1/DTD/svg11.dtd"><svg t="1606739085104" class="icon" viewBox="0 0 1024 1024" version="1.1" xmlns="http://www.w3.org/2000/svg" p-id="2881" xmlns:xlink="http://www.w3.org/1999/xlink" width="80" height="80"><defs><style type="text/css"></style></defs><path d="M506.600727 139.124364a392.378182 392.378182 0 0 0-392.378182 392.378181 392.378182 392.378182 0 0 0 392.378182 392.471273 392.378182 392.378182 0 0 0 392.424728-392.424727 390.795636 390.795636 0 0 0-103.424-265.541818 33.652364 33.652364 0 0 1 49.524363-45.521455 458.100364 458.100364 0 0 1 121.204364 311.063273c0 253.905455-205.824 459.682909-459.729455 459.682909-253.905455 0-459.682909-205.777455-459.682909-459.682909 0-253.905455 205.777455-459.729455 459.682909-459.729455V23.598545A22.993455 22.993455 0 0 1 542.626909 4.654545l120.273455 82.711273a22.993455 22.993455 0 0 1 0 37.888l-120.273455 82.711273a22.993455 22.993455 0 0 1-36.026182-18.944V139.170909z" p-id="2882"></path></svg>