<?xml version="1.0" standalone="no"?><!DOCTYPE svg PUBLIC "-//W3C//DTD SVG 1.1//EN" "http://www.w3.org/Graphics/SVG/1.1/DTD/svg11.dtd"><svg class="icon" width="200px" height="199.61px" viewBox="0 0 1026 1024" version="1.1" xmlns="http://www.w3.org/2000/svg"><path fill="#333333" d="M989.6 882.4H664.8L778.4 768c8-8 8-20.8-0.8-28.8l-0.8-0.8c-8-8-20-7.2-28 0L604 882.4H232.8l-0.8-0.8L66.4 719.2c-15.2-12-17.6-33.6-6.4-49.6 2.4-1.6 4-3.2 6.4-5.6l516-514.4c15.2-17.6 40.8-20.8 59.2-6.4L964 466.4c16.8 22.4 11.2 54.4-11.2 70.4-0.8 0.8-1.6 0.8-2.4 1.6l-81.6 80c-8 8-8 20.8 0.8 28.8 8 8 20.8 7.2 28-0.8l112.8-112.8c20.8-22.4 20.8-57.6 0-80.8L656 99.2c-22.4-20.8-57.6-20.8-80.8 0l-554.4 556C0 677.6 0 712.8 20.8 736l146.4 146.4h-136s-29.6 1.6-29.6 28c0 28.8 29.6 28.8 29.6 28.8h959.2s28.8 0 28.8-29.6c-0.8-27.2-29.6-27.2-29.6-27.2zM549.6 640l-416 39.2c-10.4 0-18.4 9.6-16.8 24.8 1.6 15.2 16.8 19.2 22.4 19.2l410.4-40.8c21.6 0 40.8-15.2 45.6-36 1.6-13.6 18.4-161.6 49.6-444.8 0.8-12-8.8-22.4-20.8-23.2-12-0.8-22.4 8.8-22.4 20.8v3.2c0 0.8-52 437.6-52 437.6z" /></svg>