<?xml version="1.0" standalone="no"?><!DOCTYPE svg PUBLIC "-//W3C//DTD SVG 1.1//EN" "http://www.w3.org/Graphics/SVG/1.1/DTD/svg11.dtd"><svg class="icon" width="200px" height="162.54px" viewBox="0 0 1260 1024" version="1.1" xmlns="http://www.w3.org/2000/svg"><path fill="#333333" d="M866.03425 962.444066h5.277335c-55.136332-6.852658-83.964758-28.670893-99.481697-50.804192H488.350373c-15.753238 22.133299-44.739195 43.951534-99.481697 50.804192h3.465712a30.79758 30.79758 0 1 0 0 61.516393h473.621096a30.79758 30.79758 0 1 0 0-61.516393zM1103.750609 0H156.508418A80.499045 80.499045 0 0 0 75.930606 80.420279v712.282649a70.88957 70.88957 0 0 0 70.889571 68.132754h966.303609a70.88957 70.88957 0 0 0 70.88957-68.132754V80.420279A80.499045 80.499045 0 0 0 1103.750609 0z m-409.584184 783.56605a17.801159 17.801159 0 0 1-17.801158 17.801159H583.342397a17.801159 17.801159 0 0 1-17.801159-17.801159v-12.287526a17.801159 17.801159 0 0 1 17.801159-17.801158h93.337934a17.801159 17.801159 0 0 1 17.801159 17.801158z m423.5258-109.563769a14.020382 14.020382 0 0 1-13.941616 14.099148H156.508418a14.177914 14.177914 0 0 1-14.177914-14.099148V80.420279a14.177914 14.177914 0 0 1 14.177914-14.099148H1103.51431a14.177914 14.177914 0 0 1 14.177915 14.099148z m-256.462712-320.57839h35.602317l1.102727-1.181493a229.918506 229.918506 0 0 0-2.520518-33.003033zM779.785273 151.546148L666.598259 264.339331v35.523551L801.209676 165.408997A203.610599 203.610599 0 0 0 779.785273 151.546148z m-50.410361-20.794274l-63.012952 63.012951v35.523552l89.005794-88.848262a179.665678 179.665678 0 0 0-25.992842-9.688241z m-62.304056-8.664281l-0.472597 0.472597v35.523552l33.554397-33.475631a228.421949 228.421949 0 0 0-33.0818-2.520518z m87.824301 231.336298l113.423313-113.26578a204.083196 204.083196 0 0 0-13.941616-21.660702L719.29284 353.423891z m83.728459-154.696796c-2.756817-2.993115-5.513633-5.907464-8.427982-8.900579s-6.143763-5.907464-9.373177-8.900579L666.598259 335.150135v18.037457h17.328562z m-12.760122 154.696796l63.406782-63.012951a273.554975 273.554975 0 0 0-9.136878-26.229141l-89.635923 89.242092h35.366019z m-199.593524-191.40184A231.966427 231.966427 0 1 0 858.551462 393.830946H626.26997z m0 0"  /></svg>