<?xml version="1.0" standalone="no"?><!DOCTYPE svg PUBLIC "-//W3C//DTD SVG 1.1//EN" "http://www.w3.org/Graphics/SVG/1.1/DTD/svg11.dtd"><svg class="icon" width="81px" height="81.00px" viewBox="0 0 1024 1024" version="1.1" xmlns="http://www.w3.org/2000/svg"><path fill="#646566" d="M701.582 500.827L448.168 763.868 320.563 623.551c-11.799-12.976-31.883-13.932-44.86-2.128-12.975 11.8-13.928 31.883-2.128 44.858l143.942 158.283c6.268 6.891 14.868 10.391 23.503 10.391 2.705 0 5.413-0.352 8.053-1.042a31.89 31.89 0 0 0 5.786 0.532c8.325 0 16.64-3.255 22.873-9.723L747.32 544.891c12.169-12.629 11.794-32.733-0.837-44.901-12.631-12.168-32.735-11.794-44.901 0.837z m191.145-308.668H765.971V95.646c0-17.538-14.218-31.756-31.756-31.756s-31.756 14.217-31.756 31.756v96.514H317.826V96.145c0-17.538-14.217-31.756-31.756-31.756-17.538 0-31.756 14.217-31.756 31.756v96.014H129.905c-36.49 0-66.176 29.736-66.176 66.287v634.053c0 36.55 29.686 66.287 66.176 66.287h762.822c36.491 0 66.179-29.737 66.179-66.287V258.446c0-36.55-29.688-66.287-66.179-66.287z m-762.822 63.408h762.822c1.528 0 2.769 1.293 2.769 2.879v125.239H127.138V258.446c0-1.586 1.241-2.879 2.767-2.879z m762.822 639.81H129.905c-1.527 0-2.768-1.291-2.768-2.878V447.197h768.359V892.5c0 1.587-1.241 2.877-2.769 2.877z" /></svg>