<?xml version="1.0" standalone="no"?><!DOCTYPE svg PUBLIC "-//W3C//DTD SVG 1.1//EN" "http://www.w3.org/Graphics/SVG/1.1/DTD/svg11.dtd"><svg class="icon" width="81px" height="81.00px" viewBox="0 0 1024 1024" version="1.1" xmlns="http://www.w3.org/2000/svg"><path fill="#646566" d="M298.666667 768c54.044444 0 99.555556-42.666667 99.555556-96.711111 0-22.755556-8.533333-45.511111-22.755556-62.577778l179.2-241.777778c11.377778 5.688889 25.6 8.533333 39.822222 8.533333 22.755556 0 45.511111-8.533333 62.577778-22.755556l142.222222 108.088889c-5.688889 11.377778-8.533333 25.6-8.533333 39.822222 0 54.044444 45.511111 96.711111 99.555556 96.711111 54.044444 0 99.555556-42.666667 99.555556-96.711111s-45.511111-96.711111-99.555556-96.711111c-22.755556 0-45.511111 8.533333-62.577778 22.755556l-142.222222-108.088889c5.688889-11.377778 8.533333-25.6 8.533333-39.822222 0-54.044444-45.511111-96.711111-99.555556-96.711111-54.044444 0-96.711111 42.666667-96.711111 96.711111 0 22.755556 8.533333 45.511111 22.755556 62.577778l-182.044444 238.933333c-11.377778-5.688889-25.6-8.533333-39.822222-8.533333-54.044444 0-99.555556 42.666667-99.555556 96.711111S244.622222 768 298.666667 768zM890.311111 449.422222c28.444444 0 54.044444 22.755556 54.044444 54.044444 0 28.444444-22.755556 54.044444-54.044444 54.044444-28.444444 0-54.044444-22.755556-54.044444-54.044444S859.022222 449.422222 890.311111 449.422222zM594.488889 224.711111c28.444444 0 54.044444 22.755556 54.044444 54.044444 0 28.444444-22.755556 54.044444-54.044444 54.044444-28.444444 0-54.044444-22.755556-54.044444-54.044444C540.444444 250.311111 566.044444 224.711111 594.488889 224.711111zM298.666667 617.244444c28.444444 0 54.044444 22.755556 54.044444 54.044444 0 28.444444-22.755556 54.044444-54.044444 54.044444-28.444444 0-54.044444-22.755556-54.044444-54.044444C244.622222 640 270.222222 617.244444 298.666667 617.244444zM1001.244444 893.155556 136.533333 893.155556 133.688889 893.155556c0 0-8.533333 0-14.222222-5.688889C113.777778 881.777778 113.777778 870.4 113.777778 864.711111L113.777778 105.244444c0-14.222222-11.377778-22.755556-22.755556-22.755556L22.755556 82.488889C11.377778 82.488889 0 91.022222 0 105.244444c0 11.377778 11.377778 22.755556 22.755556 22.755556l45.511111 0 0 96.711111L22.755556 224.711111C11.377778 221.866667 0 233.244444 0 244.622222 0 256 11.377778 267.377778 22.755556 267.377778l45.511111 0 0 96.711111L22.755556 364.088889c-11.377778 0-22.755556 8.533333-22.755556 22.755556 0 11.377778 11.377778 22.755556 22.755556 22.755556l45.511111 0 0 96.711111L22.755556 506.311111c-11.377778 0-22.755556 8.533333-22.755556 22.755556 0 11.377778 11.377778 22.755556 22.755556 22.755556l45.511111 0 0 96.711111L22.755556 648.533333c-11.377778 0-22.755556 8.533333-22.755556 22.755556s11.377778 22.755556 22.755556 22.755556l45.511111 0 0 96.711111L22.755556 790.755556c-11.377778 0-22.755556 8.533333-22.755556 22.755556 0 11.377778 11.377778 22.755556 22.755556 22.755556l45.511111 0 0 34.133333c0 25.6 8.533333 42.666667 22.755556 56.888889s34.133333 14.222222 42.666667 14.222222c2.844444 0 2.844444 0 2.844444 0l864.711111 0c11.377778 0 22.755556-8.533333 22.755556-22.755556S1012.622222 893.155556 1001.244444 893.155556z" /></svg>