<?xml version="1.0" standalone="no"?><!DOCTYPE svg PUBLIC "-//W3C//DTD SVG 1.1//EN" "http://www.w3.org/Graphics/SVG/1.1/DTD/svg11.dtd"><svg t="1632842459599" class="icon" viewBox="0 0 1024 1024" version="1.1" xmlns="http://www.w3.org/2000/svg" p-id="2417" xmlns:xlink="http://www.w3.org/1999/xlink" width="81" height="81"><defs><style type="text/css"></style></defs><path d="M864.711111 267.377778l-164.977778-164.977778 85.333333-85.333333c28.444444-28.444444 73.955556-28.444444 96.711111 0l68.266667 68.266667c28.444444 28.444444 28.444444 73.955556 0 96.711111L864.711111 267.377778zM386.844444 745.244444 221.866667 580.266667l449.422222-443.733333 164.977778 164.977778L386.844444 745.244444zM91.022222 881.777778l102.4-267.377778 164.977778 164.977778L91.022222 881.777778zM830.577778 938.666667c22.755556 0 39.822222 17.066667 39.822222 39.822222 0 22.755556-17.066667 39.822222-39.822222 39.822222l-739.555556 0C68.266667 1024 51.2 1001.244444 51.2 978.488889c0-22.755556 17.066667-39.822222 39.822222-39.822222L830.577778 938.666667z" p-id="2418"></path></svg>