<?xml version="1.0" standalone="no"?><!DOCTYPE svg PUBLIC "-//W3C//DTD SVG 1.1//EN" "http://www.w3.org/Graphics/SVG/1.1/DTD/svg11.dtd"><svg t="1628800568938" class="icon" viewBox="0 0 1024 1024" version="1.1" xmlns="http://www.w3.org/2000/svg" p-id="1751" xmlns:xlink="http://www.w3.org/1999/xlink" width="81" height="81"><defs><style type="text/css"></style></defs><path d="M896 64v418.112h-64.064L832 128H192v768h255.936L448 960H128V64h768z m-138.496 390.912a34.176 34.176 0 1 1 5.568 65.664l-12.8 72.96c29.632 9.728 53.44 30.72 67.392 57.408l70.336-25.6a34.176 34.176 0 0 1 65.6-5.888 34.176 34.176 0 1 1-54.08 37.632l-70.528 25.664a120.192 120.192 0 0 1-15.296 86.72l57.6 48.192a34.176 34.176 0 0 1 37.888 53.888 34.176 34.176 0 1 1-59.648-28.032l-57.344-48a117.952 117.952 0 0 1-83.072 30.912l-12.8 72.896a34.176 34.176 0 0 1-27.712 59.776 34.176 34.176 0 1 1-10.88-63.168l5.248-2.496 12.928-72.96a117.952 117.952 0 0 1-67.52-57.408l-70.272 25.6a34.176 34.176 0 0 1-65.6 5.888 34.176 34.176 0 1 1 49.28-40.96l4.736 3.264 70.592-25.6a120.192 120.192 0 0 1 15.296-86.72l-57.536-48.192a34.176 34.176 0 0 1-37.952-53.888 34.176 34.176 0 1 1 60.16 22.144l-0.512 5.76 57.344 48.128a117.952 117.952 0 0 1 83.008-30.912l12.8-72.96a34.176 34.176 0 0 1 27.776-59.712zM416 640v64h-128v-64h128z m64-192v64h-192V448h192z m256-192v64h-448V256h448z" fill="#2C374D" p-id="1752"></path></svg>