<?xml version="1.0" encoding="UTF-8"?>
<svg width="286px" height="286px" viewBox="0 0 286 286" version="1.1" xmlns="http://www.w3.org/2000/svg" xmlns:xlink="http://www.w3.org/1999/xlink">
    <title>画板</title>
    <defs>
        <linearGradient x1="43.2170531%" y1="3.09733972%" x2="93.1151404%" y2="92.8777292%" id="linearGradient-1">
            <stop stop-color="#3EDCD9" offset="0%"></stop>
            <stop stop-color="#1D74B5" stop-opacity="0.656759511" offset="100%"></stop>
        </linearGradient>
    </defs>
    <g id="画板" stroke="none" stroke-width="1" fill="none" fill-rule="evenodd">
        <g id="形状-2" transform="translate(0.000000, 5.000000)" fill="url(#linearGradient-1)">
            <path d="M255.686636,225.654354 L255.686636,110.860376 C255.686636,103.872886 252.510152,97.2643022 247.053588,92.899566 L170.659589,31.7915778 L170.659589,31.7915778 C155.88563,20.6794158 135.535276,21.5218405 120.16253,31.7915778 L39.3282985,93.7022241 C33.6457514,98.0544664 30.3133641,104.804212 30.3133641,111.96196 L30.3133641,273.050335 L30.3133641,273.050335 C13.5717554,273.050335 0,259.493174 0,242.769569 L0,103.077488 C9.48264384e-15,95.6862096 3.40567844,88.7072092 9.23197301,84.1591008 L100.250372,13.1085327 L100.250372,13.1085327 C127.734978,-5.25251288 163.837595,-4.24365527 190.251643,15.6235435 L277.054684,85.5388368 C282.711023,90.0947205 286,96.966981 286,104.229917 L286,237.503349 L286,237.503349 C286,259.316747 268.29771,277 246.460829,277 L119.935484,277 C86.4522665,277 59.3087558,249.885679 59.3087558,216.438469 L59.3087558,154.560383 C59.3087558,121.113173 86.4522665,93.9988519 119.935484,93.9988519 L164.746544,93.9988519 C198.229761,93.9988519 225.373272,121.113173 225.373272,154.560383 L225.373272,201.956364 L94.8940092,201.956364 L94.8940092,225.654354 C94.8940092,247.467752 112.596299,265.151005 134.43318,265.151005 L226.69125,265.151005 C248.528128,265.151002 255.686636,247.46775 255.686636,225.654354 Z M143,116.380287 C116.431795,116.380287 94.8940092,137.894912 94.8940092,164.434546 L94.8940092,183.524593 L191.105991,183.524593 L191.105991,164.434546 C191.105991,137.894912 169.568205,116.380287 143,116.380287 Z" id="形状"></path>
        </g>
    </g>
</svg>