<?xml version="1.0" encoding="UTF-8"?>
<svg width="602px" height="144px" viewBox="0 0 602 144" version="1.1" xmlns="http://www.w3.org/2000/svg" xmlns:xlink="http://www.w3.org/1999/xlink">
    <title>E家宜业 Copy</title>
    <g id="Page-1" stroke="none" stroke-width="1" fill="none" fill-rule="evenodd">
        <g id="画板" transform="translate(-217.000000, -777.000000)" fill="#FFFFFF">
            <path d="M280.207899,916 C290.611773,916 299.388227,914.509371 306.537258,911.528112 C315.429955,907.786925 321.823398,903.43195 325.717586,898.463186 C330.716095,891.740741 333.21535,886.041276 333.21535,881.364793 L333.21535,879.348059 L302.439642,879.348059 L302.439642,881.364793 C302.439642,883.644578 302.047317,885.719768 301.262668,887.590361 C300.478018,889.460955 299.417288,891.039268 298.080477,892.325301 C296.104322,893.845158 293.750373,895.043507 291.018629,895.920348 C288.286885,896.797189 285.264531,897.235609 281.951565,897.235609 C277.127422,897.235609 272.59389,896.154172 268.350969,893.991299 C264.108048,891.828425 260.271982,888.78871 256.842772,884.872155 C253.878539,881.189424 251.611773,876.717537 250.042474,871.456493 C248.473174,866.195448 247.630402,860.349844 247.514158,853.919679 L334,853.919679 L334,846.291165 C334,839.101071 333.375186,832.46631 332.125559,826.386881 C330.875931,820.307452 329.117735,814.958724 326.850969,810.340696 C324.584203,806.307229 321.779806,802.712182 318.437779,799.555556 C315.095753,796.398929 311.375931,793.753793 307.278316,791.620147 C303.1807,789.486502 298.777943,787.849732 294.070045,786.709839 C289.362146,785.569946 284.45082,785 279.336066,785 C260.21386,785 245.18927,791.284025 234.262295,803.852075 C222.754098,817.296966 217,833.109326 217,851.289157 C217,869.001339 222.434426,884.433735 233.303279,897.586345 C243.590909,909.862115 259.225782,916 280.207899,916 Z M304,837 L249,837 C249.696203,832.915119 250.842036,828.903183 252.4375,824.964191 C254.032964,821.025199 256.034546,817.509284 258.442247,814.416446 C260.849947,811.323607 263.620253,808.814324 266.753165,806.888594 C269.886076,804.962865 273.33808,804 277.109177,804 C281.634494,804 285.536129,804.831565 288.814082,806.494695 C292.092036,808.157825 294.818829,810.419098 296.994462,813.278515 C299.170095,816.137931 300.809072,819.47878 301.911392,823.301061 C303.013713,827.123342 303.709916,831.193634 304,835.511936 L304,837 Z M417.125,779.8125 C417.125,778.259199 418.384199,777 419.9375,777 L438.0625,777 C439.615801,777 440.875,778.259199 440.875,779.8125 C440.875,781.365801 442.134199,782.625 443.6875,782.625 L476.725401,782.625 C487.830362,782.625 496.832712,791.62735 496.832712,802.732311 C496.832712,803.954127 496.721347,805.173401 496.5,806.375 L496.5,806.375 L496.5,806.375 L474.625,806.375 L474.625,800.75 L379.625,800.75 L379.625,805.75 L356.5,805.75 C356.5,792.978415 366.853415,782.625 379.625,782.625 L414.3125,782.625 C415.865801,782.625 417.125,781.365801 417.125,779.8125 Z M499,810.125 L499,827.625 L413.375,827.625 L409.625,834.5 L452.125,834.5 L452.125,905.75 C452.125,915.75005 447.750044,920.541669 439,920.125 L412.125,920.125 L412.125,904.5 L424.625,904.5 C427.95835,904.916669 429.625,903.45835 429.625,900.125 L429.625,851.375 L400.875,851.375 C398.374988,854.70835 394.000031,855.958337 387.75,855.125 L356.5,855.125 L356.5,837.625 L376.5,837.625 C379.416681,838.041669 381.708325,837.000012 383.375,834.5 L387.75,827.625 L357.75,827.625 L357.75,810.125 L499,810.125 Z M456.5,843.25 L465.25,843.25 C468.58335,843.666669 470.874994,842.625012 472.125,840.125 L477.125,833.25 L497.75,833.25 L484,856.375 C482.749994,859.70835 479.000031,861.166669 472.75,860.75 L456.5,860.75 L456.5,843.25 Z M356.5,870.125 L378.375,870.125 C380.458344,870.541669 383.16665,869.291681 386.5,866.375 L394.625,858.875 L418.375,858.875 L394,885.125 C392.333325,888.041681 388.375031,889.291669 382.125,888.875 L356.5,888.875 L356.5,870.125 Z M499.625,920.125 L477.125,920.125 C467.958288,920.958337 463.375,916.37505 463.375,906.375 L459,868.25 L479.625,868.25 L484,899.5 C484,902.83335 485.458319,904.083337 488.375,903.25 L499.625,903.25 L499.625,920.125 Z M356.5,904.5 L376.5,904.5 C380.666688,904.916669 383.791656,903.666681 385.875,900.75 L397.75,888.875 L420.875,888.875 L399,915.125 C395.66665,918.45835 391.083363,920.125 385.25,920.125 L356.5,920.125 L356.5,904.5 Z M540.25,782.625 L571.8125,782.625 C573.365801,782.625 574.625,781.365801 574.625,779.8125 C574.625,778.259199 575.884199,777 577.4375,777 L598.6875,777 C600.240801,777 601.5,778.259199 601.5,779.8125 C601.5,781.365801 602.759199,782.625 604.3125,782.625 L632.75,782.625 C646.211941,782.625 657.125,793.538059 657.125,807 L657.125,807 L657.125,807 L636.5,807 L636.5,800.75 L537.75,800.75 L537.75,807 L515.875,807 C515.875,793.538059 526.788059,782.625 540.25,782.625 Z M515.875,903.25 L521.5,903.25 L521.5,813.875 L653.375,813.875 L653.375,903.875 L658.375,903.875 L658.375,920.75 L515.875,920.75 L515.875,903.25 Z M630.875,844.5 L630.875,832.625 L544,832.625 L544,844.5 L630.875,844.5 Z M544.625,860.75 L544.625,873.25 L630.875,873.25 L630.875,860.75 L544.625,860.75 Z M544.625,890.75 L544.625,903.25 L630.875,903.25 L630.875,890.75 L544.625,890.75 Z M730.5625,777.625 C736.603114,777.625 741.5,782.521886 741.5,788.5625 L741.5,900.125 L741.5,900.125 L754,900.125 L754,788.5625 C754,782.521886 758.896886,777.625 764.9375,777.625 C770.978114,777.625 775.875,782.521886 775.875,788.5625 L775.875,900.125 L775.875,900.125 L818.375,900.125 L818.375,919.5 L679.625,919.5 L679.625,900.125 L719.625,900.125 L719.625,788.5625 C719.625,782.521886 724.521886,777.625 730.5625,777.625 Z M793.375,857.625 L797.692832,794.476705 C798.076885,788.859932 802.745112,784.5 808.375,784.5 C813.523158,784.5 817.696564,788.673406 817.696564,793.821564 C817.696564,794.039701 817.688907,794.257772 817.673607,794.475372 L812.75,864.5 L812.75,864.5 C811.499994,876.583394 806.708375,882.208337 798.375,881.375 L783.375,881.375 L783.375,862.625 L789,862.625 C791.083344,863.041669 792.541663,861.375019 793.375,857.625 Z M684,863.875 L680.1797,795.109604 C679.889895,789.893108 683.883766,785.42937 689.100261,785.139565 C689.275006,785.129857 689.449986,785.125 689.625,785.125 C695.230182,785.125 699.853983,789.513848 700.14603,795.111417 L703.375,857 L703.375,857 C702.958331,862.000025 704.208319,864.083337 707.125,863.25 L711.5,863.25 L711.5,882 L695.875,882 C687.958294,882.833337 684,876.791731 684,863.875 Z" id="E家宜业-Copy"></path>
        </g>
    </g>
</svg>