<?xml version="1.0" encoding="UTF-8"?>
<svg width="582px" height="144px" viewBox="0 0 582 144" version="1.1" xmlns="http://www.w3.org/2000/svg" xmlns:xlink="http://www.w3.org/1999/xlink">
    <title>E家宜业 Copy</title>
    <g id="Page-1" stroke="none" stroke-width="1" fill="none" fill-rule="evenodd">
        <g id="画板" transform="translate(-238.000000, -779.000000)" fill="#FFFFFF">
            <g id="分组-2" transform="translate(236.000000, 117.000000)">
                <path d="M97.25,805 L43.875,805 C28.4582563,805 17.6250312,801.6667 11.375,795 C5.12496875,787.916631 2,776.250081 2,760 L2,692 C2,676.536027 14.536027,664 30,664 L76.25,664 C87.8479797,664 97.25,673.40202 97.25,685 L97.25,685 L97.25,685 L22.375,685 L22.375,723.75 L95.5,723.75 L95.5,744.125 L22.375,744.125 L22.375,762 C22.375,773.666725 24.6622939,777.720313 27.7982491,780.302799 C30.8725717,783.250352 37.4582812,786 47.875,786 L97.25,786 L97.25,805 Z M182.125,664.8125 C182.125,663.259199 183.384199,662 184.9375,662 L203.0625,662 C204.615801,662 205.875,663.259199 205.875,664.8125 C205.875,666.365801 207.134199,667.625 208.6875,667.625 L241.725401,667.625 C252.830362,667.625 261.832712,676.62735 261.832712,687.732311 C261.832712,688.954127 261.721347,690.173401 261.5,691.375 L261.5,691.375 L261.5,691.375 L239.625,691.375 L239.625,685.75 L144.625,685.75 L144.625,690.75 L121.5,690.75 C121.5,677.978415 131.853415,667.625 144.625,667.625 L179.3125,667.625 C180.865801,667.625 182.125,666.365801 182.125,664.8125 Z M264,695.125 L264,712.625 L178.375,712.625 L174.625,719.5 L217.125,719.5 L217.125,790.75 C217.125,800.75005 212.750044,805.541669 204,805.125 L177.125,805.125 L177.125,789.5 L189.625,789.5 C192.95835,789.916669 194.625,788.45835 194.625,785.125 L194.625,736.375 L165.875,736.375 C163.374988,739.70835 159.000031,740.958337 152.75,740.125 L121.5,740.125 L121.5,722.625 L141.5,722.625 C144.416681,723.041669 146.708325,722.000012 148.375,719.5 L152.75,712.625 L122.75,712.625 L122.75,695.125 L264,695.125 Z M221.5,728.25 L230.25,728.25 C233.58335,728.666669 235.874994,727.625012 237.125,725.125 L242.125,718.25 L262.75,718.25 L249,741.375 C247.749994,744.70835 244.000031,746.166669 237.75,745.75 L221.5,745.75 L221.5,728.25 Z M121.5,755.125 L143.375,755.125 C145.458344,755.541669 148.16665,754.291681 151.5,751.375 L159.625,743.875 L183.375,743.875 L159,770.125 C157.333325,773.041681 153.375031,774.291669 147.125,773.875 L121.5,773.875 L121.5,755.125 Z M264.625,805.125 L242.125,805.125 C232.958288,805.958337 228.375,801.37505 228.375,791.375 L224,753.25 L244.625,753.25 L249,784.5 C249,787.83335 250.458319,789.083337 253.375,788.25 L264.625,788.25 L264.625,805.125 Z M121.5,789.5 L141.5,789.5 C145.666688,789.916669 148.791656,788.666681 150.875,785.75 L162.75,773.875 L185.875,773.875 L164,800.125 C160.66665,803.45835 156.083363,805.125 150.25,805.125 L121.5,805.125 L121.5,789.5 Z M305.25,667.625 L336.8125,667.625 C338.365801,667.625 339.625,666.365801 339.625,664.8125 C339.625,663.259199 340.884199,662 342.4375,662 L363.6875,662 C365.240801,662 366.5,663.259199 366.5,664.8125 C366.5,666.365801 367.759199,667.625 369.3125,667.625 L397.75,667.625 C411.211941,667.625 422.125,678.538059 422.125,692 L422.125,692 L422.125,692 L401.5,692 L401.5,685.75 L302.75,685.75 L302.75,692 L280.875,692 C280.875,678.538059 291.788059,667.625 305.25,667.625 Z M280.875,788.25 L286.5,788.25 L286.5,698.875 L418.375,698.875 L418.375,788.875 L423.375,788.875 L423.375,805.75 L280.875,805.75 L280.875,788.25 Z M395.875,729.5 L395.875,717.625 L309,717.625 L309,729.5 L395.875,729.5 Z M309.625,745.75 L309.625,758.25 L395.875,758.25 L395.875,745.75 L309.625,745.75 Z M309.625,775.75 L309.625,788.25 L395.875,788.25 L395.875,775.75 L309.625,775.75 Z M495.5625,662.625 C501.603114,662.625 506.5,667.521886 506.5,673.5625 L506.5,785.125 L506.5,785.125 L519,785.125 L519,673.5625 C519,667.521886 523.896886,662.625 529.9375,662.625 C535.978114,662.625 540.875,667.521886 540.875,673.5625 L540.875,785.125 L540.875,785.125 L583.375,785.125 L583.375,804.5 L444.625,804.5 L444.625,785.125 L484.625,785.125 L484.625,673.5625 C484.625,667.521886 489.521886,662.625 495.5625,662.625 Z M558.375,742.625 L562.692832,679.476705 C563.076885,673.859932 567.745112,669.5 573.375,669.5 C578.523158,669.5 582.696564,673.673406 582.696564,678.821564 C582.696564,679.039701 582.688907,679.257772 582.673607,679.475372 L577.75,749.5 L577.75,749.5 C576.499994,761.583394 571.708375,767.208337 563.375,766.375 L548.375,766.375 L548.375,747.625 L554,747.625 C556.083344,748.041669 557.541663,746.375019 558.375,742.625 Z M449,748.875 L445.1797,680.109604 C444.889895,674.893108 448.883766,670.42937 454.100261,670.139565 C454.275006,670.129857 454.449986,670.125 454.625,670.125 C460.230182,670.125 464.853983,674.513848 465.14603,680.111417 L468.375,742 L468.375,742 C467.958331,747.000025 469.208319,749.083337 472.125,748.25 L476.5,748.25 L476.5,767 L460.875,767 C452.958294,767.833337 449,761.791731 449,748.875 Z" id="E家宜业-Copy"></path>
            </g>
        </g>
    </g>
</svg>