<?xml version="1.0" encoding="UTF-8"?>
<svg width="751px" height="583px" viewBox="0 0 751 583" version="1.1" xmlns="http://www.w3.org/2000/svg" xmlns:xlink="http://www.w3.org/1999/xlink">
    <!-- Generator: Sketch 54 (76480) - https://sketchapp.com -->
    <title>500-01</title>
    <desc>Created with Sketch.</desc>
    <g id="页面1" stroke="none" stroke-width="1" fill="none" fill-rule="evenodd">
        <g id="500-01" transform="translate(0.000000, 1.000000)">
            <g id="编组" transform="translate(585.000000, 407.000000)" fill="#D2D9DF" fill-rule="nonzero">
                <path d="M13.7,6.2 L13.7,3.7 C13.7,1.7 15.3,0 17.4,0 L79,0 C81,0 82.7,1.6 82.7,3.7 L82.7,6.3 C82.7,8.3 81.1,10 79,10 L51.8,10 C49.8,10 48.1,11.6 48.1,13.7 L48.1,16.4 C48.1,18.4 49.7,20.1 51.8,20.1 L57,20.1 C59,20.1 60.7,21.7 60.7,23.7 L60.8,28.1 C60.8,30.2 59.2,31.8 57.1,31.8 L4,31.8 C2,31.8 0.3,30.2 0.3,28.1 L0.3,23.9 C0.3,21.9 1.9,20.2 4,20.2 L28.1,20.1 C30.1,20.1 31.7,18.5 31.8,16.5 L31.9,13.6 C31.9,11.5 30.3,9.8 28.2,9.9 L17.5,10 C15.4,9.9 13.7,8.3 13.7,6.2 Z" id="路径"></path>
                <circle id="椭圆形" cx="95.9" cy="5.4" r="5.4"></circle>
            </g>
            <g id="编组" transform="translate(0.000000, 185.000000)" fill="#D2D9DF" fill-rule="nonzero">
                <path d="M79.4,6.3 L79.4,4 C79.4,2.2 77.9,0.7 76.1,0.7 L20.3,0.7 C18.5,0.7 17,2.2 17,4 L17,6.3 C17,8.1 18.5,9.6 20.3,9.6 L44.8,9.6 C46.6,9.6 48.1,11.1 48.1,12.9 L48.1,15.4 C48.1,17.2 46.6,18.7 44.8,18.7 L40.1,18.7 C38.3,18.7 36.8,20.2 36.8,22 L36.7,26 C36.7,27.9 38.2,29.4 40,29.4 L88,29.4 C89.8,29.4 91.3,27.9 91.3,26.1 L91.3,22.3 C91.3,20.5 89.8,19 88,19 L66.2,18.9 C64.4,18.9 62.9,17.4 62.9,15.6 L62.9,13 C62.9,11.1 64.4,9.6 66.3,9.6 L75.9,9.7 C77.9,9.6 79.4,8.1 79.4,6.3 Z" id="路径"></path>
                <circle id="椭圆形" cx="5.2" cy="5.6" r="4.9"></circle>
            </g>
            <g id="XMLID_4_" transform="translate(158.000000, 170.000000)" fill-rule="nonzero">
                <g id="编组">
                    <path d="M278.2,222.5 C271.2,234.8 262.4,246 252.3,255.8 L252.3,255.8 C226.7,210.1 200.5,237.2 200.5,237.2 C200.5,237.2 184.4,203.4 160.9,209.2 C184.2,194 207.9,176.9 231,159.4 C237.1,193.9 264,194.6 264,194.6 C264,194.6 261.5,213.9 278.2,222.5 Z" id="路径" fill="#A3B1BF"></path>
                    <path d="M278.2,222.5 C261.5,213.9 264,194.7 264,194.7 C264,194.7 237.1,193.9 231,159.5 C252.3,143.3 273.1,126.6 292.7,110.4 C296,122.7 297.7,135.6 297.7,148.9 C297.7,175.6 290.6,200.8 278.2,222.5 Z" id="路径" fill="#F0F2F5"></path>
                    <path d="M252.3,255.8 L252.3,255.8 C225.5,281.7 189.1,297.6 148.9,297.6 C145.4,297.6 141.9,297.5 138.4,297.2 L138.4,297.2 C138.4,297.2 126.9,276.7 143.1,265.1 C143.1,265.1 121.9,242.7 143.8,220.1 C149.4,216.6 155.1,213 160.8,209.3 C184.3,203.4 200.4,237.3 200.4,237.3 C200.4,237.3 226.7,210.1 252.3,255.8 Z" id="路径" fill="#F0F2F5"></path>
                    <path d="M292.6,110.3 C273.1,126.5 252.3,143.2 230.9,159.4 C230.8,158.8 230.7,158.1 230.6,157.5 C225.2,121.1 261.6,107.2 261.6,107.2 C261.6,107.2 255.2,80.6 285.9,90.8 C288.6,97.1 290.8,103.6 292.6,110.3 Z" id="路径" fill="#F0F2F5"></path>
                    <path d="M200.5,132.5 C202.8,140.5 193.1,148.8 193.1,148.8 C193.1,148.8 174.9,166.5 158.6,148.8 C158.6,148.8 144.7,126.5 165.6,118 C186.5,109.5 187.3,133.4 187.3,133.4 C187.3,133.4 198.1,124.5 200.5,132.5 Z" id="路径" fill="#F0F2F5"></path>
                    <path d="M143.8,220.1 C121.9,242.7 143.1,265.1 143.1,265.1 C126.8,276.7 138.4,297.2 138.4,297.2 L138.4,297.2 C106.7,295 77.7,282.9 54.5,263.9 C81.2,255.6 111.9,239.9 143.8,220.1 Z" id="路径" fill="#A3B1BF"></path>
                    <path d="M75.4,181.5 C115.3,181.5 118.4,114.9 118.4,114.9 C118.4,114.9 152.5,116.5 135.4,77.8 C135.4,77.8 158.1,79.7 164.3,56.9 C168.7,41 161.5,24.2 148,14.7 C142.6,10.9 135.6,6.6 126.4,1.9 C133.7,0.8 141.2,0.2 148.9,0.2 C210.5,0.2 263.3,37.6 285.9,90.9 C255.2,80.7 261.6,107.3 261.6,107.3 C261.6,107.3 225.2,121.2 230.6,157.6 C230.7,158.3 230.8,158.9 230.9,159.5 C207.8,177.1 184.1,194.1 160.8,209.3 C157,210.3 153,212.2 148.8,215.6 C146.9,217.1 145.2,218.6 143.8,220.2 C111.8,240 81.2,255.7 54.5,264 C22.8,238 2.1,199.2 0.2,155.5 C0.2,155.4 0.2,155.4 0.2,155.3 C0.7,141.7 2.8,128.5 6.2,115.9 C12.3,117.3 28.8,120.6 36.3,115.3 C45.6,108.7 35.4,181.5 75.4,181.5 Z M193.1,148.8 C193.1,148.8 202.8,140.4 200.5,132.5 C198.2,124.6 187.3,133.4 187.3,133.4 C187.3,133.4 186.5,109.5 165.6,118 C144.7,126.5 158.6,148.8 158.6,148.8 C174.9,166.5 193.1,148.8 193.1,148.8 Z" id="形状" fill="#A3B1BF"></path>
                    <path d="M118.4,114.9 C118.4,114.9 115.3,181.5 75.4,181.5 C35.5,181.5 45.7,108.7 36.4,115.3 C28.9,120.6 12.4,117.3 6.3,115.9 C14.9,83.9 32.2,55.4 55.4,33.2 C75.4,17 99.8,5.8 126.5,1.8 C135.7,6.5 142.8,10.8 148.1,14.6 C161.6,24.1 168.8,40.9 164.4,56.8 C158.2,79.6 135.5,77.7 135.5,77.7 C152.5,116.4 118.4,114.9 118.4,114.9 Z" id="路径" fill="#F0F2F5"></path>
                </g>
            </g>
            <circle id="椭圆形" cx="306.9" cy="318.8" r="148.8"></circle>
            <path d="M552.8,477.1 C549.7,478.9 546.6,480.7 543.3,482.3" id="路径" stroke="#000000" stroke-width="2"></path>
            <path d="M353.1,460.5 C338.7,465.1 323.4,467.6 307.4,467.6 C225.2,467.6 158.6,401 158.6,318.8 C158.6,236.6 225.2,170 307.4,170 C389.6,170 456.2,236.6 456.2,318.8 C456.2,369.7 430.7,414.6 391.7,441.4" id="路径" stroke="#A3B1BF" stroke-width="2"></path>
            <path d="M335.1,512.2 C434.235113,512.2 514.6,431.835113 514.6,332.7 C514.6,233.564887 434.235113,153.2 335.1,153.2 C235.964887,153.2 155.6,233.564887 155.6,332.7 C155.6,431.835113 235.964887,512.2 335.1,512.2 Z" id="椭圆形" stroke="#A3B1BF" stroke-width="2" stroke-linecap="round" stroke-linejoin="round" stroke-dasharray="3.0005,3.0005"></path>
            <path d="M329.8,580.6 C464.88885,580.6 574.4,471.08885 574.4,336 C574.4,200.91115 464.88885,91.4 329.8,91.4 C194.71115,91.4 85.2,200.91115 85.2,336 C85.2,471.08885 194.71115,580.6 329.8,580.6 Z" id="椭圆形" stroke="#A3B1BF" stroke-width="2" stroke-linecap="round" stroke-linejoin="round" stroke-dasharray="3.0023,3.0023"></path>
            <path d="M153.5,325.3 C153.5,325.3 68,469.2 198.1,436.7 C328.2,404.2 620.4,136.3 620.4,136.3" id="路径" stroke="#E5E9ED" stroke-width="2" stroke-dasharray="3,3"></path>
            <path d="M155.5,333.6 C155.5,333.6 91,442.2 189.2,417.7 C287.4,393.1 599.2,107.5 599.2,107.5" id="路径" stroke="#E5E9ED" stroke-width="2" stroke-dasharray="3,3"></path>
            <path d="M568.1,62 C568.1,62 574.6,58.6 580.9,62" id="路径" stroke="#FFFFFF" stroke-width="2"></path>
            <g id="XMLID_2_" transform="translate(584.000000, 0.000000)">
                <g id="编组" transform="translate(0.000000, 15.000000)" fill-rule="nonzero">
                    <path d="M138,82.1 C153.1,104.6 158.9,124 151.1,131.8 C139.4,143.4 101.5,124.3 66.4,89.1 C51.4,74 39.3,58.4 31.3,44.6 C30.5,43.2 29.7,41.8 29,40.4 C27.5,37.6 26.2,34.9 25.1,32.2 C19.7,19.5 18.9,9.3 24,4.2 C31.2,-3 48.4,1.6 68.8,14.4 C81.4,22.3 95.3,33.5 108.7,46.9 C116.6,54.9 123.7,63 129.9,70.9 C132.8,74.7 135.5,78.5 138,82.1 Z M118.5,101.2 C123,96.7 111.9,78.4 93.8,60.1 C75.7,41.9 57.3,30.7 52.8,35.2 C48.3,39.7 59.4,58 77.5,76.3 C95.7,94.5 114,105.7 118.5,101.2 Z" id="形状" fill="#E5E9ED"></path>
                    <path d="M143,41.1 C147.4,52.3 149,67.2 137.9,82.1 C135.4,78.4 132.7,74.7 129.8,70.9 C147.4,59.6 141.6,37.9 141.6,37.9 C142.1,38.9 142.6,40 143,41.1 Z" id="路径" fill="#F0F2F5"></path>
                    <path d="M93.7,60.1 C111.8,78.3 122.9,96.7 118.4,101.2 C113.9,105.7 95.6,94.5 77.4,76.3 C59.3,58.1 48.2,39.7 52.7,35.2 C57.3,30.8 75.6,41.9 93.7,60.1 Z" id="路径" fill="#A3B1BF"></path>
                    <path d="M141.6,37.9 C141.6,37.9 147.4,59.6 129.8,70.9 C123.7,63 116.6,54.9 108.6,46.9 C95.2,33.4 81.3,22.3 68.7,14.4 C68.7,14.4 86.9,-2.3 118.4,14.2 C121.4,15.8 124.2,17.6 126.8,19.7 C128.8,21.2 130.6,22.9 132.3,24.7 C136.1,28.5 139.3,33 141.6,37.9 Z M113.3,21.2 C113.9,20.2 113.6,18.9 112.6,18.3 C111.6,17.7 110.3,18 109.6,19 C109,20 109.3,21.3 110.3,22 C111.3,22.7 112.6,22.2 113.3,21.2 Z M103.1,20.4 C104.4,20.5 105.6,19.8 105.9,18.6 C106.1,17.7 105.8,16.6 103.8,15.6 C100.3,13.9 93.8,14.3 91.1,14.6 C90,14.7 88.9,15.1 88.1,15.8 C85.5,18.1 88.1,20.7 91.2,20.1 C93.9,19.5 100.3,20.1 103.1,20.4 Z" id="形状" fill="#A3B1BF"></path>
                    <path d="M150.4,2.9 C151.4,3.5 132.4,24.7 132.4,24.7 C130.7,22.9 128.8,21.2 126.9,19.7 C126.9,19.7 149.4,2.3 150.4,2.9 Z" id="路径" fill="#F0F2F5"></path>
                    <path d="M112.6,18.3 C113.6,18.9 113.9,20.2 113.3,21.2 C112.7,22.2 111.4,22.5 110.3,21.9 C109.2,21.3 109,20 109.6,18.9 C110.2,18 111.6,17.6 112.6,18.3 Z" id="路径" fill="#F2F2F2"></path>
                    <path d="M105.9,18.5 C105.6,19.7 104.3,20.5 103.1,20.3 C100.3,20 93.9,19.4 91.1,20 C88,20.6 85.4,18 88,15.7 C88.8,15 89.9,14.6 91,14.5 C93.7,14.2 100.2,13.8 103.7,15.5 C105.8,16.5 106.2,17.6 105.9,18.5 Z" id="路径" fill="#F2F2F2"></path>
                    <path d="M4,137.9 C3.8,137.9 3.7,138 3.5,138.1 C2.6,136.5 1.6,134.9 0.7,133.3 C1.8,134.9 2.9,136.4 4,137.9 Z" id="路径" fill="#D8D7D7"></path>
                </g>
                <g id="编组" transform="translate(20.000000, 0.000000)" stroke="#A3B1BF" stroke-width="2">
                    <path d="M9,55.3 C7.5,52.5 6.2,49.8 5.1,47.1" id="路径"></path>
                    <path d="M11.3,59.5 C10.5,58.1 9.7,56.7 9,55.3" id="路径"></path>
                    <path d="M5.1,47.2 C-0.3,34.5 -1.1,24.3 4,19.2 C11.2,12 28.4,16.6 48.8,29.4 C61.4,37.3 75.3,48.5 88.7,61.9 C96.6,69.9 103.7,78 109.9,85.9 C112.8,89.7 115.6,93.5 118,97.1 C133.1,119.6 138.9,139 131.1,146.8 C119.4,158.4 81.5,139.3 46.4,104.1 C31.4,89 19.3,73.4 11.3,59.6" id="路径"></path>
                    <path d="M48.8,29.4 C48.8,29.4 67,12.7 98.5,29.2 C101.5,30.8 104.3,32.6 106.9,34.7 C108.9,36.2 110.7,37.9 112.4,39.7 C116.1,43.6 119.3,48 121.6,52.9 C122.1,53.9 122.6,55 123,56.1 C127.4,67.3 129,82.2 117.9,97.1" id="路径"></path>
                    <path d="M98.5,116.2 C94,120.7 75.7,109.5 57.5,91.3 C39.4,73.1 28.3,54.7 32.8,50.2 C37.3,45.7 55.6,56.9 73.8,75.1 C91.9,93.4 103,111.7 98.5,116.2 Z" id="路径"></path>
                    <path d="M106.9,34.7 C106.9,34.7 129.4,17.3 130.5,17.9 C131.5,18.5 112.5,39.7 112.5,39.7" id="路径"></path>
                    <path d="M127.3,12.3 L132.5,0" id="路径"></path>
                    <path d="M133.7,16.1 L142.2,7.9" id="路径"></path>
                    <path d="M135.7,21.2 L146.8,20.6" id="路径"></path>
                </g>
            </g>
            <path d="M613,21.7 C613,21.7 624.9,17.2 663.5,43.3" id="路径" stroke="#F2F2F2" stroke-width="2" stroke-linecap="round" stroke-linejoin="round"></path>
            <path d="M666.8,46.9 C666.8,46.9 714.5,84 731.3,124.9" id="路径" stroke="#F2F2F2" stroke-width="2" stroke-linecap="round" stroke-linejoin="round"></path>
        </g>
    </g>
</svg>